<?xml version="1.0" encoding="UTF-8" standalone="no"?>
<!DOCTYPE svg PUBLIC "-//W3C//DTD SVG 1.1//EN" "http://www.w3.org/Graphics/SVG/1.1/DTD/svg11.dtd">
<svg version="1.1" xmlns="http://www.w3.org/2000/svg" xmlns:xlink="http://www.w3.org/1999/xlink" preserveAspectRatio="xMidYMid meet" viewBox="0 0 95.82 95.82" width="95.82" height="95.82"><defs><path d="M17.75 20.48L17.92 20.53L18.08 20.6L18.23 20.69L18.39 20.79L18.53 20.93L18.68 21.07L41.53 47.07L41.69 47.27L41.75 47.38L41.82 47.49L41.87 47.61L41.92 47.73L42.01 47.97L42.04 48.09L42.06 48.23L42.08 48.35L42.09 48.48L42.09 48.73L42.08 48.86L42.06 48.99L42.04 49.11L42.01 49.23L41.92 49.48L41.87 49.6L41.82 49.71L41.75 49.82L41.69 49.93L41.53 50.14L18.68 76.14L18.53 76.28L18.38 76.41L18.23 76.52L18.08 76.6L17.92 76.67L17.74 76.72L17.58 76.75L17.42 76.78L17.25 76.76L17.08 76.75L16.92 76.71L16.76 76.66L16.61 76.6L16.45 76.52L16.31 76.43L16.17 76.32L16.05 76.21L15.92 76.06L15.81 75.92L15.72 75.77L15.63 75.6L15.56 75.41L15.51 75.23L15.46 75.03L15.44 74.83L15.43 74.6L15.43 22.6L15.44 22.39L15.46 22.18L15.51 21.97L15.56 21.79L15.63 21.61L15.81 21.28L15.92 21.14L16.05 21.01L16.17 20.89L16.31 20.77L16.45 20.68L16.61 20.6L16.76 20.54L16.92 20.49L17.08 20.46L17.25 20.44L17.42 20.44L17.58 20.45L17.75 20.48ZM37.49 48.6L19.24 27.83L19.24 69.37L37.49 48.6Z" id="c640wI8z09"></path><path d="M17.75 20.48L17.92 20.53L18.08 20.6L18.23 20.69L18.39 20.79L18.53 20.93L18.68 21.07L41.53 47.07L41.69 47.27L41.75 47.38L41.82 47.49L41.87 47.61L41.92 47.73L42.01 47.97L42.04 48.09L42.06 48.23L42.08 48.35L42.09 48.48L42.09 48.73L42.08 48.86L42.06 48.99L42.04 49.11L42.01 49.23L41.92 49.48L41.87 49.6L41.82 49.71L41.75 49.82L41.69 49.93L41.53 50.14L18.68 76.14L18.53 76.28L18.38 76.41L18.23 76.52L18.08 76.6L17.92 76.67L17.74 76.72L17.58 76.75L17.42 76.78L17.25 76.76L17.08 76.75L16.92 76.71L16.76 76.66L16.61 76.6L16.45 76.52L16.31 76.43L16.17 76.32L16.05 76.21L15.92 76.06L15.81 75.92L15.72 75.77L15.63 75.6L15.56 75.41L15.51 75.23L15.46 75.03L15.44 74.83L15.43 74.6L15.43 22.6L15.44 22.39L15.46 22.18L15.51 21.97L15.56 21.79L15.63 21.61L15.81 21.28L15.92 21.14L16.05 21.01L16.17 20.89L16.31 20.77L16.45 20.68L16.61 20.6L16.76 20.54L16.92 20.49L17.08 20.46L17.25 20.44L17.42 20.44L17.58 20.45L17.75 20.48ZM37.49 48.6L19.24 27.83L19.24 69.37L37.49 48.6Z" id="asKI9ZhvY"></path><path d="M78.93 20.49L79.1 20.54L79.25 20.6L79.4 20.68L79.54 20.77L79.69 20.89L79.81 21.01L79.93 21.14L80.04 21.28L80.22 21.61L80.3 21.79L80.4 22.18L80.42 22.39L80.43 22.6L80.43 74.6L80.42 74.83L80.4 75.03L80.35 75.23L80.3 75.42L80.22 75.6L80.13 75.77L80.04 75.93L79.93 76.07L79.81 76.21L79.68 76.33L79.54 76.43L79.4 76.52L79.25 76.6L79.1 76.66L78.93 76.71L78.77 76.75L78.6 76.76L78.44 76.76L78.27 76.75L78.1 76.72L77.94 76.67L77.78 76.6L77.61 76.51L77.46 76.41L77.32 76.28L77.18 76.14L54.33 50.14L54.16 49.93L54.1 49.82L54.03 49.71L53.98 49.6L53.93 49.48L53.85 49.23L53.82 49.11L53.8 48.99L53.78 48.86L53.77 48.73L53.77 48.48L53.78 48.35L53.8 48.23L53.82 48.09L53.85 47.97L53.93 47.73L53.98 47.61L54.03 47.49L54.1 47.38L54.16 47.27L54.33 47.07L77.18 21.07L77.32 20.93L77.47 20.79L77.62 20.69L77.78 20.6L77.94 20.53L78.11 20.48L78.27 20.45L78.44 20.44L78.61 20.44L78.77 20.46L78.93 20.49ZM76.62 69.37L76.62 27.83L58.37 48.6L76.62 69.37Z" id="c3cijtHnvO"></path><path d="M78.93 20.49L79.1 20.54L79.25 20.6L79.4 20.68L79.54 20.77L79.69 20.89L79.81 21.01L79.93 21.14L80.04 21.28L80.22 21.61L80.3 21.79L80.4 22.18L80.42 22.39L80.43 22.6L80.43 74.6L80.42 74.83L80.4 75.03L80.35 75.23L80.3 75.42L80.22 75.6L80.13 75.77L80.04 75.93L79.93 76.07L79.81 76.21L79.68 76.33L79.54 76.43L79.4 76.52L79.25 76.6L79.1 76.66L78.93 76.71L78.77 76.75L78.6 76.76L78.44 76.76L78.27 76.75L78.1 76.72L77.94 76.67L77.78 76.6L77.61 76.51L77.46 76.41L77.32 76.28L77.18 76.14L54.33 50.14L54.16 49.93L54.1 49.82L54.03 49.71L53.98 49.6L53.93 49.48L53.85 49.23L53.82 49.11L53.8 48.99L53.78 48.86L53.77 48.73L53.77 48.48L53.78 48.35L53.8 48.23L53.82 48.09L53.85 47.97L53.93 47.73L53.98 47.61L54.03 47.49L54.1 47.38L54.16 47.27L54.33 47.07L77.18 21.07L77.32 20.93L77.47 20.79L77.62 20.69L77.78 20.6L77.94 20.53L78.11 20.48L78.27 20.45L78.44 20.44L78.61 20.44L78.77 20.46L78.93 20.49ZM76.62 69.37L76.62 27.83L58.37 48.6L76.62 69.37Z" id="b1knx2YYkm"></path><path d="M46.15 78.94C46.15 80.14 47 81.1 48.06 81.1C49.11 81.1 49.96 80.14 49.96 78.94C49.96 78.06 49.96 71.14 49.96 70.26C49.96 69.08 49.11 68.1 48.06 68.1C47 68.1 46.15 69.08 46.15 70.26C46.15 71.14 46.15 78.06 46.15 78.94Z" id="didD5clI"></path><path d="M46.15 78.94C46.15 80.14 47 81.1 48.06 81.1C49.11 81.1 49.96 80.14 49.96 78.94C49.96 78.06 49.96 71.14 49.96 70.26C49.96 69.08 49.11 68.1 48.06 68.1C47 68.1 46.15 69.08 46.15 70.26C46.15 71.14 46.15 78.06 46.15 78.94Z" id="b2HAE14Bw"></path><path d="M46.15 61.6C46.15 62.8 47 63.76 48.06 63.76C49.11 63.76 49.96 62.8 49.96 61.6C49.96 60.74 49.96 53.8 49.96 52.94C49.96 51.74 49.11 50.76 48.06 50.76C47 50.76 46.15 51.74 46.15 52.94C46.15 53.8 46.15 60.74 46.15 61.6Z" id="cn0dDwaT3"></path><path d="M46.15 61.6C46.15 62.8 47 63.76 48.06 63.76C49.11 63.76 49.96 62.8 49.96 61.6C49.96 60.74 49.96 53.8 49.96 52.94C49.96 51.74 49.11 50.76 48.06 50.76C47 50.76 46.15 51.74 46.15 52.94C46.15 53.8 46.15 60.74 46.15 61.6Z" id="aZjv9ya7J"></path><path d="M46.15 44.26C46.15 45.46 47 46.44 48.06 46.44C49.11 46.44 49.96 45.46 49.96 44.26C49.96 43.4 49.96 36.46 49.96 35.6C49.96 34.4 49.11 33.44 48.06 33.44C47 33.44 46.15 34.4 46.15 35.6C46.15 36.46 46.15 43.4 46.15 44.26Z" id="cMnqRgj16"></path><path d="M46.15 44.26C46.15 45.46 47 46.44 48.06 46.44C49.11 46.44 49.96 45.46 49.96 44.26C49.96 43.4 49.96 36.46 49.96 35.6C49.96 34.4 49.11 33.44 48.06 33.44C47 33.44 46.15 34.4 46.15 35.6C46.15 36.46 46.15 43.4 46.15 44.26Z" id="b3z6nxOoOR"></path><path d="M46.15 26.94C46.15 28.14 47 29.1 48.06 29.1C49.11 29.1 49.96 28.14 49.96 26.94C49.96 26.06 49.96 19.14 49.96 18.26C49.96 17.08 49.11 16.1 48.06 16.1C47 16.1 46.15 17.08 46.15 18.26C46.15 19.14 46.15 26.06 46.15 26.94Z" id="atDCkGqk6"></path><path d="M46.15 26.94C46.15 28.14 47 29.1 48.06 29.1C49.11 29.1 49.96 28.14 49.96 26.94C49.96 26.06 49.96 19.14 49.96 18.26C49.96 17.08 49.11 16.1 48.06 16.1C47 16.1 46.15 17.08 46.15 18.26C46.15 19.14 46.15 26.06 46.15 26.94Z" id="g2H0y4pvAD"></path></defs><g><g><g><use xlink:href="#c640wI8z09" opacity="1" fill="#000000" fill-opacity="1"></use><g><use xlink:href="#c640wI8z09" opacity="1" fill-opacity="0" stroke="#000000" stroke-width="1" stroke-opacity="0"></use></g></g><g><use xlink:href="#asKI9ZhvY" opacity="1" fill="#000000" fill-opacity="0"></use><g><use xlink:href="#asKI9ZhvY" opacity="1" fill-opacity="0" stroke="#000000" stroke-width="1" stroke-opacity="0"></use></g></g><g><use xlink:href="#c3cijtHnvO" opacity="1" fill="#000000" fill-opacity="1"></use><g><use xlink:href="#c3cijtHnvO" opacity="1" fill-opacity="0" stroke="#000000" stroke-width="1" stroke-opacity="0"></use></g></g><g><use xlink:href="#b1knx2YYkm" opacity="1" fill="#000000" fill-opacity="0"></use><g><use xlink:href="#b1knx2YYkm" opacity="1" fill-opacity="0" stroke="#000000" stroke-width="1" stroke-opacity="0"></use></g></g><g><use xlink:href="#didD5clI" opacity="1" fill="#000000" fill-opacity="1"></use><g><use xlink:href="#didD5clI" opacity="1" fill-opacity="0" stroke="#000000" stroke-width="1" stroke-opacity="0"></use></g></g><g><use xlink:href="#b2HAE14Bw" opacity="1" fill="#000000" fill-opacity="0"></use><g><use xlink:href="#b2HAE14Bw" opacity="1" fill-opacity="0" stroke="#000000" stroke-width="1" stroke-opacity="0"></use></g></g><g><use xlink:href="#cn0dDwaT3" opacity="1" fill="#000000" fill-opacity="1"></use><g><use xlink:href="#cn0dDwaT3" opacity="1" fill-opacity="0" stroke="#000000" stroke-width="1" stroke-opacity="0"></use></g></g><g><use xlink:href="#aZjv9ya7J" opacity="1" fill="#000000" fill-opacity="0"></use><g><use xlink:href="#aZjv9ya7J" opacity="1" fill-opacity="0" stroke="#000000" stroke-width="1" stroke-opacity="0"></use></g></g><g><use xlink:href="#cMnqRgj16" opacity="1" fill="#000000" fill-opacity="1"></use><g><use xlink:href="#cMnqRgj16" opacity="1" fill-opacity="0" stroke="#000000" stroke-width="1" stroke-opacity="0"></use></g></g><g><use xlink:href="#b3z6nxOoOR" opacity="1" fill="#000000" fill-opacity="0"></use><g><use xlink:href="#b3z6nxOoOR" opacity="1" fill-opacity="0" stroke="#000000" stroke-width="1" stroke-opacity="0"></use></g></g><g><use xlink:href="#atDCkGqk6" opacity="1" fill="#000000" fill-opacity="1"></use><g><use xlink:href="#atDCkGqk6" opacity="1" fill-opacity="0" stroke="#000000" stroke-width="1" stroke-opacity="0"></use></g></g><g><use xlink:href="#g2H0y4pvAD" opacity="1" fill="#000000" fill-opacity="0"></use><g><use xlink:href="#g2H0y4pvAD" opacity="1" fill-opacity="0" stroke="#000000" stroke-width="1" stroke-opacity="0"></use></g></g></g></g></svg>