<?xml version="1.0" encoding="UTF-8" standalone="no"?>
<!DOCTYPE svg PUBLIC "-//W3C//DTD SVG 1.1//EN" "http://www.w3.org/Graphics/SVG/1.1/DTD/svg11.dtd">
<svg version="1.1" xmlns="http://www.w3.org/2000/svg" xmlns:xlink="http://www.w3.org/1999/xlink" preserveAspectRatio="xMidYMid meet" viewBox="0 0 95.82 95.82" width="95.82" height="95.82"><defs><path d="M55.88 15.71L55.9 15.73L55.97 15.73L55.99 15.74L56.03 15.75L56.05 15.75L56.07 15.76L56.11 15.77L56.13 15.8L56.17 15.81L56.21 15.83L56.24 15.85L56.27 15.87L56.29 15.89L56.32 15.9L56.35 15.92L56.36 15.95L56.39 15.96L80.87 37.25L80.9 37.28L80.92 37.29L80.94 37.3L80.95 37.33L80.97 37.34L80.97 37.36L81.05 37.44L81.08 37.49L81.09 37.5L81.13 37.59L81.13 37.61L81.15 37.63L81.15 37.64L81.18 37.71L81.18 37.73L81.19 37.76L81.19 37.78L81.2 37.8L81.2 37.83L81.22 37.85L81.22 37.89L81.23 37.91L81.23 38L81.24 38.03L81.24 38.07L81.23 38.1L81.23 38.19L81.22 38.21L81.22 38.26L81.2 38.28L81.2 38.31L81.19 38.33L81.19 38.34L81.18 38.36L81.18 38.38L81.15 38.45L81.15 38.47L81.12 38.54L81.11 38.55L81.08 38.61L81.06 38.62L81.05 38.64L81.02 38.68L80.99 38.72L80.97 38.74L80.97 38.76L80.95 38.77L80.94 38.79L80.9 38.82L80.88 38.83L80.87 38.85L56.39 60.14L56.35 60.17L56.32 60.2L56.29 60.22L56.27 60.23L56.24 60.25L56.21 60.25L56.19 60.27L56.17 60.29L56.13 60.3L56.11 60.31L56.07 60.32L56.05 60.34L55.99 60.36L55.97 60.36L55.93 60.37L55.9 60.37L55.88 60.38L55.85 60.38L55.82 60.39L55.57 60.39L55.54 60.38L55.49 60.38L55.42 60.36L55.4 60.36L55.34 60.34L55.32 60.32L55.25 60.3L55.22 60.29L55.19 60.27L55.18 60.25L55.14 60.25L55.12 60.23L55.09 60.22L55.06 60.2L55.04 60.17L55.01 60.16L54.85 59.99L54.84 59.96L54.82 59.94L54.8 59.91L54.78 59.88L54.77 59.86L54.72 59.79L54.71 59.75L54.7 59.73L54.69 59.66L54.68 59.64L54.66 59.6L54.66 59.57L54.65 59.56L54.65 59.52L54.64 59.49L54.64 59.43L54.63 59.39L54.63 50.82L53.67 50.82L53.03 50.84L52.71 50.86L52.39 50.88L52.08 50.91L51.76 50.92L51.45 50.96L51.13 51L50.82 51.04L50.49 51.09L50.18 51.14L49.86 51.18L49.56 51.24L49.25 51.31L48.94 51.38L48.63 51.44L48.31 51.51L48.01 51.59L47.7 51.67L47.39 51.75L46.79 51.92L46.49 52.03L45.88 52.23L45.59 52.33L45.29 52.45L44.98 52.55L44.11 52.93L43.82 53.05L43.53 53.19L43.25 53.32L42.95 53.47L42.66 53.61L42.38 53.77L41.99 53.98L41.6 54.2L41.22 54.43L40.82 54.66L40.45 54.9L40.08 55.14L39.7 55.4L39.34 55.65L38.97 55.91L38.62 56.18L38.27 56.46L37.57 57L36.9 57.59L36.24 58.18L35.93 58.5L35.59 58.81L34.68 59.78L34.09 60.44L33.25 61.47L32.97 61.83L32.71 62.18L32.45 62.55L31.95 63.28L31.46 64.03L31.23 64.41L31 64.8L30.78 65.18L30.57 65.59L30.15 66.38L30.05 66.63L29.92 66.88L29.71 67.4L29.6 67.66L29.41 68.18L29.22 68.69L28.95 69.49L28.88 69.75L28.65 70.54L28.58 70.82L28.45 71.36L28.39 71.63L28.35 71.91L28.29 72.16L28.23 72.44L28.19 72.71L28.14 72.99L28.1 73.27L28.05 73.54L27.96 74.36L27.93 74.63L27.89 75.18L27.88 75.46L27.86 75.74L27.84 76.02L27.84 76.3L27.83 76.57L27.83 77.89L27.84 77.96L27.84 78.3L27.86 78.39L27.86 78.56L27.87 78.65L27.87 78.72L27.88 78.81L27.88 78.9L27.89 78.98L27.89 79.23L27.9 79.32L27.9 79.4L27.91 79.48L27.91 79.57L27.94 79.73L27.95 79.83L27.95 79.9L27.96 79.99L27.97 80.06L27.98 80.15L27.98 80.24L28.01 80.4L28.02 80.49L28.02 80.53L28.03 80.55L28.03 80.69L28.02 80.71L28.02 80.77L28.01 80.81L28.01 80.84L28 80.88L27.98 80.9L27.97 80.93L27.97 80.97L27.96 80.99L27.94 81.02L27.93 81.05L27.91 81.07L27.9 81.11L27.89 81.13L27.88 81.17L27.87 81.19L27.84 81.23L27.82 81.24L27.81 81.26L27.79 81.3L27.68 81.41L27.65 81.44L27.6 81.47L27.56 81.48L27.55 81.51L27.52 81.52L27.49 81.54L27.46 81.55L27.42 81.58L27.4 81.59L27.31 81.62L27.28 81.63L27.19 81.67L27.16 81.67L27.12 81.68L27.06 81.68L27.04 81.69L26.9 81.69L26.88 81.68L26.81 81.68L26.77 81.67L26.75 81.67L26.71 81.66L26.69 81.66L26.62 81.63L26.6 81.62L26.54 81.6L26.52 81.59L26.48 81.56L26.45 81.55L26.42 81.54L26.39 81.52L26.38 81.49L26.34 81.48L26.32 81.46L26.28 81.45L26.26 81.42L25.75 80.98L25.25 80.53L24.76 80.06L24.28 79.58L23.81 79.11L22.9 78.1L22.47 77.59L22.04 77.07L21.24 76.01L20.85 75.46L20.48 74.91L20.12 74.35L19.42 73.21L18.79 72.05L18.49 71.44L17.92 70.25L17.41 69.02L16.95 67.77L16.74 67.14L16.54 66.5L16.36 65.85L16.03 64.57L15.89 63.91L15.66 62.59L15.55 61.92L15.47 61.26L15.39 60.58L15.33 59.92L15.3 59.24L15.25 57.89L15.27 57.17L15.31 56.46L15.34 55.76L15.41 55.05L15.58 53.65L15.69 52.95L15.82 52.26L15.96 51.58L16.11 50.89L16.29 50.21L16.47 49.54L16.67 48.86L16.88 48.2L17.35 46.89L17.62 46.25L17.88 45.6L18.17 44.97L18.48 44.34L18.78 43.72L19.11 43.11L19.81 41.89L20.55 40.73L20.95 40.16L21.77 39.03L22.21 38.48L22.66 37.93L23.11 37.41L23.58 36.88L24.07 36.37L24.56 35.87L25.07 35.38L26.12 34.43L26.67 33.97L27.23 33.53L27.55 33.26L28.57 32.5L29.27 32.01L29.62 31.78L29.98 31.54L30.33 31.31L30.69 31.08L31.05 30.86L31.41 30.65L31.77 30.43L32.52 30.01L32.89 29.81L33.26 29.63L33.63 29.43L34.02 29.25L34.4 29.05L34.78 28.88L35.17 28.71L35.56 28.54L35.94 28.37L37.12 27.9L37.53 27.76L37.92 27.61L38.73 27.35L39.12 27.23L39.54 27.1L40.35 26.88L41.17 26.65L41.59 26.55L42.42 26.38L43.33 26.24L43.63 26.21L43.95 26.17L44.24 26.13L44.54 26.08L45.15 26.01L45.46 25.98L46.67 25.84L46.99 25.82L47.59 25.75L47.89 25.73L48.2 25.7L48.5 25.68L48.82 25.64L49.72 25.57L50.04 25.55L51.26 25.47L51.56 25.45L51.87 25.43L52.17 25.42L52.49 25.4L53.09 25.37L53.41 25.35L54.63 25.3L54.63 16.69L54.64 16.66L54.64 16.61L54.65 16.58L54.65 16.54L54.66 16.52L54.66 16.48L54.68 16.46L54.69 16.4L54.7 16.38L54.71 16.34L54.72 16.32L54.73 16.29L54.75 16.26L54.77 16.24L54.78 16.2L54.8 16.19L54.82 16.17L54.84 16.13L54.85 16.11L55.06 15.9L55.09 15.89L55.12 15.87L55.14 15.85L55.18 15.83L55.19 15.82L55.22 15.81L55.25 15.8L55.28 15.77L55.32 15.76L55.34 15.75L55.36 15.75L55.4 15.74L55.42 15.73L55.49 15.73L55.51 15.71L55.57 15.71L55.61 15.7L55.78 15.7L55.82 15.71L55.88 15.71ZM56.75 26.39L56.75 26.48L56.69 26.7L56.66 26.79L56.64 26.83L56.62 26.88L56.59 26.91L56.49 27.05L56.39 27.14L56.35 27.17L56.32 27.2L56.28 27.23L56.24 27.25L56.2 27.27L56.12 27.32L56.09 27.33L56.04 27.35L55.96 27.38L55.9 27.38L55.85 27.39L55.82 27.39L55.77 27.4L55.71 27.4L54.64 27.44L54.29 27.45L53.93 27.47L53.57 27.48L53.21 27.51L52.85 27.52L51.77 27.59L51.42 27.61L49.99 27.69L49.63 27.73L49.28 27.75L47.84 27.88L47.49 27.91L46.78 27.98L46.42 28.03L46.07 28.06L45.7 28.09L45.34 28.13L44.99 28.18L44.28 28.27L43.93 28.32L43.21 28.4L42.86 28.45L41.56 28.75L41.13 28.86L40.71 28.98L40.28 29.1L39.84 29.23L39.44 29.36L39.01 29.5L38.6 29.65L38.17 29.79L37.34 30.1L36.52 30.43L35.72 30.79L34.92 31.16L34.12 31.57L33.34 31.99L32.96 32.2L32.59 32.42L31.82 32.89L31.44 33.12L30.34 33.85L29.98 34.11L29.25 34.64L28.9 34.9L28.57 35.18L27.98 35.65L27.41 36.13L26.88 36.62L26.34 37.12L25.82 37.63L25.32 38.15L24.83 38.69L24.35 39.24L23.87 39.8L23.43 40.37L23 40.94L22.58 41.53L22.18 42.13L21.79 42.74L21.41 43.36L21.05 43.98L20.71 44.62L20.39 45.26L20.07 45.91L19.78 46.57L19.51 47.23L19.25 47.91L19 48.59L18.77 49.28L18.56 49.97L18.36 50.67L18.19 51.37L18.02 52.08L17.88 52.79L17.75 53.5L17.65 54.22L17.56 54.94L17.44 56.41L17.39 57.14L17.38 57.89L17.39 58.51L17.42 59.14L17.45 59.77L17.5 60.38L17.56 61L17.72 62.24L17.82 62.84L17.94 63.46L18.07 64.05L18.21 64.66L18.36 65.25L18.52 65.85L18.9 67.02L19.11 67.61L19.33 68.18L19.55 68.76L19.79 69.33L20.05 69.89L20.32 70.45L20.88 71.53L21.19 72.08L21.51 72.6L21.83 73.13L22.17 73.65L22.52 74.17L22.87 74.67L23.24 75.17L23.63 75.65L24.02 76.13L24.85 77.07L25.27 77.53L25.71 77.98L25.71 77.3L25.7 77.25L25.7 76.8L25.74 75.46L25.76 75.13L25.78 74.78L25.85 74.13L25.89 73.79L26.02 72.8L26.06 72.48L26.12 72.14L26.19 71.81L26.32 71.17L26.39 70.83L26.71 69.55L26.91 68.9L27.02 68.6L27.11 68.27L27.34 67.64L27.45 67.33L27.56 67.01L27.7 66.71L27.82 66.39L27.95 66.08L28.09 65.79L28.23 65.47L28.47 65L28.73 64.52L29.24 63.59L29.8 62.68L30.08 62.24L30.4 61.79L30.69 61.35L31.32 60.49L31.64 60.07L31.97 59.66L32.32 59.25L32.66 58.85L33.02 58.45L34.1 57.3L34.87 56.55L35.25 56.2L35.66 55.84L36.07 55.5L36.47 55.16L36.89 54.84L37.3 54.5L37.74 54.18L38.61 53.57L39.49 53L39.95 52.71L41.35 51.9L41.69 51.73L42.02 51.54L42.36 51.38L43.06 51.04L43.76 50.74L44.47 50.46L44.83 50.32L45.58 50.06L45.95 49.96L46.71 49.73L47.09 49.63L47.49 49.52L48.27 49.35L49.07 49.2L49.89 49.06L50.74 48.95L51.59 48.86L52.02 48.83L52.47 48.79L52.92 48.77L53.36 48.73L53.82 48.72L54.29 48.7L54.76 48.7L55.22 48.69L55.75 48.69L55.81 48.7L55.85 48.7L55.93 48.72L55.99 48.73L56.03 48.74L56.07 48.77L56.12 48.78L56.16 48.8L56.24 48.84L56.27 48.86L56.32 48.88L56.38 48.94L56.52 49.07L56.53 49.11L56.56 49.14L56.59 49.19L56.61 49.22L56.63 49.27L56.66 49.29L56.68 49.34L56.7 49.43L56.75 49.61L56.75 49.71L56.76 49.76L56.76 56.99L78.55 38.05L56.76 19.09L56.76 26.34L56.75 26.39Z" id="c6NhwuO2LB"></path><path d="M54.46 18.2L54.48 18.21L54.55 18.21L54.57 18.22L54.61 18.23L54.63 18.23L54.65 18.24L54.68 18.25L54.71 18.27L54.74 18.28L54.78 18.31L54.81 18.33L54.84 18.34L54.86 18.36L54.88 18.37L54.92 18.4L54.93 18.42L54.95 18.43L78.4 38.82L78.43 38.85L78.46 38.87L78.47 38.88L78.48 38.9L78.5 38.91L78.5 38.93L78.58 39.01L78.6 39.06L78.61 39.07L78.66 39.16L78.66 39.17L78.67 39.19L78.67 39.2L78.7 39.27L78.7 39.29L78.71 39.31L78.71 39.33L78.72 39.36L78.72 39.38L78.74 39.4L78.74 39.43L78.75 39.46L78.75 39.55L78.76 39.57L78.76 39.61L78.75 39.64L78.75 39.73L78.74 39.75L78.74 39.79L78.72 39.81L78.72 39.84L78.71 39.86L78.71 39.87L78.7 39.89L78.7 39.9L78.67 39.97L78.67 39.99L78.65 40.06L78.63 40.07L78.6 40.13L78.59 40.14L78.58 40.16L78.55 40.19L78.52 40.24L78.5 40.25L78.5 40.27L78.48 40.28L78.47 40.31L78.43 40.33L78.41 40.34L78.4 40.36L54.95 60.75L54.92 60.79L54.88 60.81L54.86 60.83L54.84 60.84L54.81 60.86L54.78 60.86L54.76 60.88L54.74 60.9L54.71 60.91L54.68 60.92L54.65 60.93L54.63 60.94L54.57 60.96L54.55 60.96L54.52 60.98L54.48 60.98L54.46 60.99L54.44 60.99L54.4 61L54.17 61L54.14 60.99L54.09 60.99L54.02 60.96L54 60.96L53.95 60.94L53.92 60.93L53.86 60.91L53.83 60.9L53.8 60.88L53.79 60.86L53.76 60.86L53.73 60.84L53.71 60.83L53.68 60.81L53.66 60.79L53.63 60.77L53.48 60.61L53.47 60.59L53.44 60.56L53.43 60.53L53.41 60.51L53.4 60.48L53.36 60.42L53.34 60.38L53.33 60.36L53.32 60.29L53.31 60.27L53.3 60.24L53.3 60.21L53.29 60.19L53.29 60.16L53.28 60.13L53.28 60.07L53.27 60.04L53.27 51.82L52.35 51.82L51.74 51.85L51.42 51.87L51.12 51.88L50.82 51.91L50.52 51.92L50.22 51.96L49.92 52L49.62 52.04L49.3 52.08L49 52.14L48.7 52.17L48.41 52.23L48.11 52.29L47.82 52.36L47.52 52.42L47.22 52.48L46.93 52.56L46.62 52.64L46.33 52.72L45.75 52.88L45.46 52.98L44.88 53.17L44.6 53.27L44.31 53.39L44.02 53.49L43.19 53.84L42.91 53.97L42.63 54.1L42.36 54.22L42.08 54.37L41.8 54.5L41.54 54.65L41.16 54.85L40.79 55.06L40.42 55.28L40.04 55.51L39.68 55.73L39.33 55.96L38.97 56.21L38.62 56.46L38.27 56.7L37.93 56.96L37.6 57.23L36.93 57.75L36.28 58.31L35.65 58.88L35.35 59.18L35.03 59.48L34.16 60.41L33.59 61.04L32.79 62.02L32.52 62.37L32.27 62.71L32.02 63.06L31.54 63.77L31.07 64.48L30.85 64.85L30.63 65.22L30.42 65.59L30.22 65.98L29.82 66.73L29.72 66.97L29.59 67.21L29.39 67.71L29.29 67.96L29.1 68.45L28.92 68.94L28.67 69.71L28.6 69.96L28.38 70.72L28.31 70.99L28.19 71.5L28.13 71.76L28.09 72.03L28.03 72.27L27.97 72.54L27.94 72.8L27.89 73.06L27.85 73.33L27.81 73.59L27.72 74.38L27.68 74.64L27.65 75.16L27.64 75.43L27.62 75.7L27.61 75.97L27.61 76.23L27.6 76.49L27.6 77.76L27.61 77.83L27.61 78.15L27.62 78.24L27.62 78.4L27.63 78.49L27.63 78.55L27.64 78.64L27.64 78.72L27.65 78.8L27.65 79.05L27.66 79.12L27.66 79.2L27.67 79.28L27.67 79.37L27.7 79.53L27.71 79.61L27.71 79.68L27.72 79.77L27.73 79.84L27.74 79.93L27.74 80.01L27.76 80.16L27.77 80.25L27.77 80.28L27.79 80.31L27.79 80.44L27.77 80.46L27.77 80.52L27.76 80.55L27.76 80.59L27.75 80.62L27.74 80.64L27.73 80.68L27.73 80.71L27.72 80.73L27.7 80.75L27.68 80.79L27.67 80.81L27.66 80.84L27.65 80.86L27.64 80.9L27.63 80.92L27.61 80.95L27.58 80.97L27.57 80.99L27.55 81.02L27.45 81.13L27.42 81.15L27.37 81.19L27.34 81.2L27.33 81.22L27.29 81.23L27.27 81.26L27.24 81.27L27.2 81.29L27.18 81.3L27.09 81.33L27.07 81.34L26.98 81.38L26.95 81.38L26.91 81.39L26.86 81.39L26.84 81.4L26.7 81.4L26.68 81.39L26.61 81.39L26.58 81.38L26.56 81.38L26.52 81.37L26.5 81.37L26.43 81.34L26.41 81.33L26.36 81.31L26.33 81.3L26.3 81.28L26.27 81.27L26.24 81.26L26.21 81.23L26.2 81.21L26.17 81.2L26.14 81.18L26.11 81.17L26.09 81.14L25.6 80.72L25.12 80.28L24.65 79.84L24.19 79.38L23.74 78.92L22.87 77.96L22.46 77.47L22.05 76.97L21.28 75.95L20.91 75.43L20.55 74.9L20.21 74.37L19.54 73.28L18.93 72.16L18.64 71.58L18.1 70.44L17.61 69.26L17.17 68.06L16.97 67.46L16.78 66.85L16.6 66.22L16.29 64.99L16.16 64.37L15.93 63.1L15.83 62.46L15.75 61.82L15.68 61.18L15.62 60.54L15.59 59.89L15.54 58.6L15.56 57.91L15.6 57.23L15.63 56.56L15.7 55.88L15.85 54.54L15.97 53.87L16.09 53.21L16.22 52.55L16.37 51.89L16.53 51.24L16.71 50.6L16.9 49.95L17.1 49.31L17.55 48.06L17.81 47.45L18.06 46.82L18.34 46.22L18.63 45.62L18.92 45.03L19.24 44.44L19.91 43.27L20.62 42.16L21 41.61L21.79 40.53L22.2 40L22.64 39.48L23.08 38.98L23.52 38.48L23.99 37.98L24.46 37.5L24.95 37.04L25.95 36.12L26.48 35.68L27.01 35.26L27.33 35L28.3 34.28L28.97 33.81L29.3 33.59L29.65 33.35L29.98 33.14L30.33 32.92L30.68 32.7L31.02 32.5L31.37 32.29L32.08 31.89L32.44 31.7L32.8 31.52L33.15 31.33L33.52 31.16L33.89 30.97L34.25 30.81L34.63 30.64L35 30.48L35.36 30.32L36.49 29.87L36.88 29.74L37.26 29.59L38.03 29.35L38.41 29.22L38.81 29.1L39.58 28.89L40.37 28.68L40.78 28.58L41.57 28.41L42.44 28.27L42.73 28.25L43.03 28.21L43.31 28.17L43.6 28.13L44.18 28.06L44.48 28.03L45.64 27.89L45.94 27.87L46.52 27.81L46.81 27.79L47.1 27.76L47.4 27.74L47.7 27.7L48.57 27.64L48.87 27.62L50.04 27.54L50.33 27.53L50.62 27.5L50.91 27.49L51.21 27.47L51.79 27.45L52.09 27.43L53.27 27.38L53.27 19.13L53.28 19.1L53.28 19.05L53.29 19.02L53.29 18.99L53.3 18.97L53.3 18.93L53.31 18.91L53.32 18.85L53.33 18.83L53.34 18.8L53.36 18.78L53.37 18.74L53.38 18.72L53.4 18.7L53.41 18.66L53.43 18.65L53.44 18.63L53.47 18.6L53.48 18.57L53.68 18.37L53.71 18.36L53.73 18.34L53.76 18.33L53.79 18.31L53.8 18.3L53.83 18.28L53.86 18.27L53.89 18.25L53.92 18.24L53.95 18.23L53.97 18.23L54 18.22L54.02 18.21L54.09 18.21L54.11 18.2L54.17 18.2L54.2 18.18L54.37 18.18L54.4 18.2L54.46 18.2ZM55.3 28.42L55.3 28.51L55.24 28.72L55.21 28.81L55.2 28.84L55.17 28.89L55.14 28.92L55.05 29.06L54.95 29.14L54.92 29.17L54.88 29.2L54.85 29.22L54.81 29.24L54.77 29.27L54.69 29.31L54.66 29.32L54.62 29.35L54.54 29.37L54.48 29.37L54.44 29.38L54.4 29.38L54.36 29.39L54.3 29.39L53.28 29.42L52.94 29.43L52.6 29.46L52.25 29.47L51.9 29.49L51.56 29.5L50.53 29.57L50.2 29.59L48.82 29.67L48.48 29.7L48.14 29.72L46.76 29.85L46.42 29.88L45.74 29.95L45.4 29.99L45.06 30.03L44.72 30.05L44.37 30.09L44.04 30.14L43.35 30.23L43.02 30.27L42.33 30.35L41.99 30.39L40.74 30.68L40.33 30.79L39.93 30.91L39.52 31.02L39.1 31.14L38.71 31.26L38.3 31.4L37.91 31.54L37.5 31.68L36.7 31.98L35.92 32.29L35.15 32.64L34.38 32.99L33.62 33.39L32.87 33.79L32.51 33.99L32.15 34.2L31.41 34.65L31.06 34.87L29.99 35.57L29.65 35.82L28.96 36.32L28.62 36.58L28.3 36.85L27.74 37.29L27.19 37.75L26.68 38.22L26.17 38.7L25.66 39.19L25.18 39.69L24.72 40.2L24.26 40.73L23.8 41.27L23.38 41.81L22.96 42.36L22.56 42.93L22.18 43.5L21.8 44.09L21.45 44.68L21.1 45.27L20.78 45.89L20.46 46.5L20.16 47.12L19.88 47.75L19.63 48.39L19.37 49.03L19.14 49.69L18.91 50.35L18.71 51.01L18.52 51.68L18.35 52.35L18.2 53.03L18.06 53.71L17.94 54.39L17.84 55.08L17.75 55.77L17.64 57.18L17.59 57.88L17.58 58.6L17.59 59.19L17.62 59.79L17.65 60.4L17.7 60.99L17.75 61.58L17.91 62.76L18.01 63.34L18.12 63.93L18.24 64.5L18.38 65.08L18.52 65.65L18.68 66.22L19.03 67.35L19.24 67.91L19.45 68.45L19.66 69.01L19.89 69.56L20.14 70.09L20.4 70.63L20.93 71.67L21.23 72.19L21.53 72.69L21.85 73.2L22.17 73.7L22.51 74.19L22.84 74.67L23.2 75.15L23.57 75.61L23.95 76.08L24.74 76.97L25.14 77.42L25.56 77.84L25.56 77.19L25.55 77.15L25.55 76.71L25.59 75.43L25.61 75.12L25.63 74.78L25.7 74.16L25.73 73.83L25.85 72.88L25.9 72.57L25.95 72.25L26.02 71.94L26.14 71.32L26.21 71L26.52 69.77L26.71 69.15L26.81 68.86L26.9 68.54L27.13 67.94L27.23 67.64L27.34 67.34L27.47 67.05L27.58 66.75L27.71 66.44L27.84 66.17L27.97 65.86L28.21 65.41L28.45 64.95L28.95 64.06L29.48 63.19L29.75 62.76L30.05 62.34L30.33 61.91L30.93 61.09L31.24 60.69L31.56 60.29L31.89 59.9L32.22 59.51L32.56 59.13L33.6 58.03L34.34 57.31L34.7 56.98L35.1 56.63L35.49 56.31L35.87 55.99L36.27 55.67L36.67 55.35L37.08 55.05L37.92 54.46L38.77 53.91L39.2 53.63L40.54 52.86L40.87 52.69L41.19 52.52L41.51 52.36L42.18 52.04L42.85 51.75L43.53 51.48L43.88 51.34L44.59 51.1L44.95 51L45.68 50.79L46.04 50.69L46.42 50.58L47.17 50.42L47.94 50.27L48.72 50.14L49.54 50.04L50.35 49.95L50.77 49.92L51.2 49.88L51.63 49.86L52.05 49.83L52.5 49.81L52.94 49.79L53.39 49.79L53.83 49.78L54.34 49.78L54.39 49.79L54.44 49.79L54.52 49.81L54.57 49.83L54.61 49.84L54.65 49.86L54.69 49.87L54.73 49.89L54.81 49.93L54.84 49.95L54.88 49.97L54.94 50.03L55.07 50.15L55.09 50.18L55.12 50.22L55.14 50.26L55.16 50.29L55.19 50.34L55.21 50.36L55.23 50.41L55.25 50.5L55.3 50.66L55.3 50.76L55.31 50.81L55.31 57.74L76.18 39.59L55.31 21.43L55.31 28.37L55.3 28.42Z" id="f1ZFKhZbc3"></path><path d="M36.26 14.85L36.28 14.85L36.31 14.85L36.35 14.87L36.4 14.87L36.42 14.88L36.45 14.89L36.46 14.91L36.49 14.92L36.51 14.93L36.54 14.94L36.55 14.95L36.58 14.96L36.61 14.99L36.64 15.01L36.68 15.03L56.33 31.82L56.35 31.85L56.37 31.86L56.38 31.86L56.39 31.88L56.41 31.89L56.42 31.91L56.44 31.93L56.45 31.95L56.48 31.98L56.49 32.01L56.5 32.02L56.54 32.09L56.55 32.1L56.56 32.12L56.56 32.14L56.58 32.19L56.58 32.21L56.59 32.23L56.59 32.23L56.6 32.25L56.6 32.27L56.61 32.29L56.61 32.32L56.62 32.34L56.62 32.41L56.63 32.43L56.63 32.46L56.62 32.48L56.62 32.56L56.61 32.58L56.61 32.61L56.6 32.63L56.6 32.65L56.59 32.67L56.59 32.68L56.58 32.7L56.58 32.71L56.56 32.76L56.56 32.78L56.53 32.83L56.52 32.84L56.48 32.92L56.45 32.95L56.43 32.98L56.42 32.99L56.41 33.01L56.39 33.02L56.38 33.04L56.35 33.06L56.34 33.07L56.33 33.09L36.68 49.86L36.66 49.88L36.64 49.88L36.61 49.9L36.6 49.92L36.58 49.93L36.55 49.95L36.54 49.95L36.51 49.96L36.49 49.98L36.46 49.99L36.45 50L36.42 50.01L36.4 50.02L36.35 50.03L36.33 50.03L36.31 50.04L36.28 50.04L36.26 50.05L36.24 50.05L36.21 50.06L36.02 50.06L35.99 50.05L35.95 50.05L35.9 50.03L35.88 50.03L35.83 50.02L35.81 50.01L35.76 49.99L35.74 49.98L35.72 49.96L35.7 49.95L35.67 49.95L35.64 49.92L35.61 49.9L35.59 49.88L35.58 49.88L35.43 49.73L35.43 49.72L35.41 49.7L35.4 49.67L35.37 49.64L35.35 49.61L35.33 49.56L35.32 49.54L35.3 49.49L35.29 49.47L35.28 49.44L35.28 49.37L35.27 49.35L35.27 49.3L35.26 49.28L35.26 42.52L34.49 42.52L33.98 42.54L33.47 42.56L33.21 42.59L32.96 42.61L32.7 42.63L32.46 42.66L32.2 42.68L31.94 42.72L31.69 42.76L31.43 42.8L31.2 42.84L30.94 42.9L30.44 43L29.95 43.12L29.7 43.19L29.45 43.25L28.97 43.39L28.73 43.47L28.23 43.63L28 43.72L27.76 43.8L27.52 43.88L26.81 44.17L26.59 44.28L26.35 44.39L26.12 44.49L25.88 44.61L25.65 44.72L25.43 44.84L25.12 45L24.8 45.18L24.49 45.36L24.18 45.55L23.88 45.73L23.57 45.93L23.27 46.13L22.99 46.32L22.69 46.53L22.41 46.74L22.12 46.96L21.56 47.39L21.02 47.85L20.5 48.33L20.24 48.56L19.98 48.81L19.25 49.58L18.77 50.1L18.09 50.91L17.87 51.19L17.66 51.47L17.45 51.76L17.05 52.33L16.85 52.63L16.47 53.22L16.12 53.84L15.94 54.16L15.61 54.78L15.52 54.98L15.42 55.18L15.25 55.58L15.17 55.79L15.02 56.19L14.94 56.41L14.86 56.6L14.58 57.44L14.4 58.06L14.35 58.28L14.24 58.71L14.2 58.91L14.15 59.13L14.11 59.34L14.06 59.56L14.03 59.77L13.99 59.99L13.96 60.2L13.93 60.41L13.85 61.08L13.83 61.28L13.79 61.72L13.76 62.37L13.76 62.59L13.75 62.81L13.75 63.85L13.76 63.91L13.76 64.18L13.77 64.25L13.77 64.51L13.78 64.58L13.78 64.65L13.79 64.71L13.79 64.78L13.8 64.84L13.8 64.91L13.81 64.97L13.81 65.04L13.82 65.1L13.82 65.17L13.85 65.38L13.85 65.51L13.86 65.57L13.87 65.64L13.87 65.7L13.88 65.77L13.89 65.82L13.9 65.9L13.9 65.92L13.91 65.95L13.91 66.05L13.9 66.07L13.9 66.12L13.89 66.15L13.89 66.18L13.87 66.22L13.86 66.25L13.86 66.27L13.85 66.3L13.84 66.32L13.83 66.35L13.82 66.36L13.81 66.39L13.79 66.41L13.77 66.45L13.76 66.48L13.73 66.51L13.71 66.54L13.6 66.65L13.56 66.68L13.54 66.69L13.52 66.71L13.49 66.72L13.45 66.74L13.42 66.76L13.4 66.77L13.32 66.8L13.31 66.8L13.23 66.83L13.2 66.83L13.17 66.84L13.13 66.84L13.1 66.85L13 66.85L12.97 66.84L12.92 66.84L12.89 66.83L12.87 66.83L12.85 66.82L12.82 66.82L12.78 66.8L12.76 66.8L12.71 66.78L12.69 66.77L12.66 66.75L12.62 66.73L12.59 66.72L12.58 66.7L12.55 66.69L12.51 66.65L12.49 66.64L12.07 66.28L11.67 65.92L11.28 65.56L10.89 65.18L10.51 64.8L10.15 64.42L9.79 64.02L9.1 63.21L8.45 62.36L8.14 61.94L7.84 61.5L7.55 61.07L7.27 60.62L7 60.16L6.74 59.71L6.24 58.78L5.79 57.82L5.58 57.35L5.38 56.85L5.01 55.88L4.84 55.38L4.69 54.87L4.54 54.36L4.28 53.35L4.16 52.84L4.06 52.31L3.97 51.8L3.89 51.27L3.82 50.75L3.75 50.21L3.71 49.68L3.68 49.15L3.64 48.09L3.66 47.51L3.68 46.96L3.72 46.4L3.77 45.85L3.83 45.29L3.9 44.75L4 44.19L4.1 43.65L4.21 43.11L4.34 42.57L4.48 42.03L4.63 41.5L4.78 40.98L4.95 40.45L5.33 39.42L5.54 38.91L5.76 38.4L5.98 37.91L6.23 37.41L6.48 36.92L6.74 36.44L7.01 35.95L7.3 35.49L7.6 35.02L8.21 34.11L8.88 33.22L9.59 32.36L9.96 31.94L10.34 31.53L10.72 31.12L11.12 30.74L11.54 30.35L12.37 29.6L12.8 29.24L13.25 28.89L13.53 28.68L14.34 28.07L15.17 27.51L15.47 27.32L15.75 27.14L16.32 26.78L16.62 26.61L16.91 26.44L17.5 26.12L17.8 25.96L18.11 25.81L18.41 25.65L18.71 25.51L19.02 25.36L19.64 25.09L19.94 24.96L20.26 24.82L21.2 24.45L21.53 24.34L21.85 24.22L22.49 24.02L23.15 23.82L23.79 23.64L24.45 23.47L24.79 23.39L25.46 23.25L26.19 23.14L26.44 23.11L26.91 23.05L27.16 23.02L27.65 22.96L27.89 22.94L28.88 22.83L29.12 22.81L29.61 22.76L29.86 22.74L30.1 22.72L30.34 22.7L30.59 22.67L31.33 22.62L31.57 22.6L32.55 22.53L33.05 22.51L33.29 22.5L33.54 22.48L34.02 22.46L34.28 22.44L35.26 22.41L35.26 15.62L35.27 15.6L35.27 15.55L35.28 15.53L35.28 15.46L35.29 15.44L35.31 15.39L35.32 15.37L35.33 15.34L35.35 15.3L35.35 15.28L35.37 15.26L35.38 15.24L35.4 15.22L35.41 15.2L35.43 15.17L35.43 15.16L35.56 15.03L35.58 15.02L35.61 14.99L35.64 14.98L35.65 14.96L35.67 14.95L35.7 14.94L35.76 14.91L35.79 14.89L35.83 14.87L35.88 14.87L35.9 14.86L35.93 14.85L35.95 14.85L35.97 14.85L36.02 14.85L36.04 14.84L36.18 14.84L36.21 14.85L36.26 14.85ZM36.97 23.25L36.97 23.33L36.92 23.51L36.89 23.58L36.88 23.61L36.8 23.73L36.77 23.76L36.76 23.78L36.68 23.86L36.65 23.88L36.61 23.91L36.55 23.94L36.53 23.96L36.46 24L36.43 24L36.39 24.02L36.32 24.04L36.24 24.06L36.21 24.06L36.17 24.07L36.13 24.07L35.27 24.09L34.98 24.1L34.7 24.12L34.41 24.12L34.12 24.14L33.83 24.14L32.97 24.2L32.68 24.21L31.25 24.31L30.97 24.33L29.81 24.44L29.53 24.46L28.96 24.51L28.67 24.55L28.38 24.58L28.09 24.6L27.81 24.64L27.53 24.67L26.95 24.74L26.68 24.78L26.09 24.85L25.81 24.89L24.76 25.12L24.42 25.21L23.73 25.4L23.39 25.49L22.72 25.71L22.38 25.83L22.05 25.94L21.38 26.19L20.73 26.44L20.07 26.73L19.43 27.03L18.8 27.34L18.17 27.67L17.55 28.01L16.95 28.38L16.65 28.57L15.76 29.14L15.47 29.34L14.89 29.77L14.61 29.97L14.33 30.19L13.87 30.56L13.41 30.94L12.97 31.32L12.55 31.71L12.13 32.12L11.72 32.53L11.33 32.96L10.95 33.38L10.57 33.83L10.21 34.28L9.86 34.73L9.21 35.67L8.89 36.15L8.59 36.64L8.3 37.12L7.77 38.13L7.52 38.65L7.28 39.17L7.06 39.69L6.65 40.76L6.47 41.3L6.3 41.84L6.14 42.39L6 42.94L5.87 43.5L5.76 44.06L5.66 44.63L5.57 45.2L5.5 45.77L5.4 46.92L5.37 47.5L5.36 48.09L5.37 48.57L5.41 49.57L5.45 50.05L5.5 50.55L5.56 51.02L5.63 51.51L5.71 51.99L5.81 52.48L5.9 52.95L6.02 53.42L6.14 53.89L6.28 54.36L6.58 55.3L6.74 55.74L7.09 56.65L7.29 57.1L7.5 57.55L7.71 57.98L8.16 58.85L8.41 59.27L8.66 59.69L8.93 60.1L9.2 60.51L9.47 60.92L9.76 61.3L10.06 61.7L10.37 62.09L10.68 62.47L11.35 63.21L11.69 63.57L12.04 63.92L12.04 63.39L12.03 63.35L12.03 62.99L12.06 61.94L12.1 61.4L12.13 61.15L12.15 60.89L12.18 60.63L12.29 59.84L12.33 59.59L12.37 59.32L12.43 59.06L12.53 58.56L12.59 58.29L12.72 57.78L12.85 57.28L13.01 56.77L13.09 56.53L13.17 56.27L13.25 56.03L13.35 55.77L13.44 55.52L13.54 55.29L13.74 54.79L13.96 54.31L14.06 54.07L14.46 53.31L14.88 52.58L15.11 52.22L15.32 51.87L15.55 51.51L15.8 51.16L16.04 50.81L16.29 50.48L16.54 50.14L16.81 49.8L17.07 49.49L17.35 49.16L17.62 48.84L18.49 47.92L18.78 47.62L19.09 47.32L19.4 47.04L19.71 46.76L20.03 46.47L20.36 46.2L20.68 45.95L21.01 45.68L21.35 45.42L21.7 45.17L22.39 44.69L23.12 44.23L23.48 44L23.85 43.8L24.59 43.37L24.87 43.23L25.14 43.08L25.42 42.95L25.97 42.68L26.25 42.57L26.53 42.46L27.11 42.23L27.4 42.12L27.99 41.92L28.29 41.83L28.9 41.65L29.2 41.57L29.52 41.49L30.16 41.36L30.8 41.24L31.13 41.19L31.45 41.13L32.14 41.05L32.82 40.98L33.17 40.94L33.53 40.91L33.88 40.9L34.24 40.87L34.61 40.86L34.98 40.84L35.36 40.84L35.74 40.83L36.16 40.83L36.2 40.84L36.24 40.84L36.31 40.86L36.39 40.88L36.42 40.9L36.46 40.91L36.48 40.92L36.55 40.96L36.58 40.98L36.61 40.99L36.64 41.02L36.67 41.04L36.77 41.14L36.79 41.17L36.82 41.2L36.84 41.23L36.85 41.26L36.89 41.32L36.91 41.36L36.91 41.39L36.93 41.43L36.97 41.56L36.97 41.64L36.98 41.67L36.98 47.38L54.47 32.45L36.98 17.51L36.98 23.22L36.97 23.25Z" id="grNqosIIg"></path><path d="M36.26 14.85L36.28 14.85L36.31 14.85L36.35 14.87L36.4 14.87L36.42 14.88L36.45 14.89L36.46 14.91L36.49 14.92L36.51 14.93L36.54 14.94L36.55 14.95L36.58 14.96L36.61 14.99L36.64 15.01L36.68 15.03L56.33 31.82L56.35 31.85L56.37 31.86L56.38 31.86L56.39 31.88L56.41 31.89L56.42 31.91L56.44 31.93L56.45 31.95L56.48 31.98L56.49 32.01L56.5 32.02L56.54 32.09L56.55 32.1L56.56 32.12L56.56 32.14L56.58 32.19L56.58 32.21L56.59 32.23L56.59 32.23L56.6 32.25L56.6 32.27L56.61 32.29L56.61 32.32L56.62 32.34L56.62 32.41L56.63 32.43L56.63 32.46L56.62 32.48L56.62 32.56L56.61 32.58L56.61 32.61L56.6 32.63L56.6 32.65L56.59 32.67L56.59 32.68L56.58 32.7L56.58 32.71L56.56 32.76L56.56 32.78L56.53 32.83L56.52 32.84L56.48 32.92L56.45 32.95L56.43 32.98L56.42 32.99L56.41 33.01L56.39 33.02L56.38 33.04L56.35 33.06L56.34 33.07L56.33 33.09L36.68 49.86L36.66 49.88L36.64 49.88L36.61 49.9L36.6 49.92L36.58 49.93L36.55 49.95L36.54 49.95L36.51 49.96L36.49 49.98L36.46 49.99L36.45 50L36.42 50.01L36.4 50.02L36.35 50.03L36.33 50.03L36.31 50.04L36.28 50.04L36.26 50.05L36.24 50.05L36.21 50.06L36.02 50.06L35.99 50.05L35.95 50.05L35.9 50.03L35.88 50.03L35.83 50.02L35.81 50.01L35.76 49.99L35.74 49.98L35.72 49.96L35.7 49.95L35.67 49.95L35.64 49.92L35.61 49.9L35.59 49.88L35.58 49.88L35.43 49.73L35.43 49.72L35.41 49.7L35.4 49.67L35.37 49.64L35.35 49.61L35.33 49.56L35.32 49.54L35.3 49.49L35.29 49.47L35.28 49.44L35.28 49.37L35.27 49.35L35.27 49.3L35.26 49.28L35.26 42.52L34.49 42.52L33.98 42.54L33.47 42.56L33.21 42.59L32.96 42.61L32.7 42.63L32.46 42.66L32.2 42.68L31.94 42.72L31.69 42.76L31.43 42.8L31.2 42.84L30.94 42.9L30.44 43L29.95 43.12L29.7 43.19L29.45 43.25L28.97 43.39L28.73 43.47L28.23 43.63L28 43.72L27.76 43.8L27.52 43.88L26.81 44.17L26.59 44.28L26.35 44.39L26.12 44.49L25.88 44.61L25.65 44.72L25.43 44.84L25.12 45L24.8 45.18L24.49 45.36L24.18 45.55L23.88 45.73L23.57 45.93L23.27 46.13L22.99 46.32L22.69 46.53L22.41 46.74L22.12 46.96L21.56 47.39L21.02 47.85L20.5 48.33L20.24 48.56L19.98 48.81L19.25 49.58L18.77 50.1L18.09 50.91L17.87 51.19L17.66 51.47L17.45 51.76L17.05 52.33L16.85 52.63L16.47 53.22L16.12 53.84L15.94 54.16L15.61 54.78L15.52 54.98L15.42 55.18L15.25 55.58L15.17 55.79L15.02 56.19L14.94 56.41L14.86 56.6L14.58 57.44L14.4 58.06L14.35 58.28L14.24 58.71L14.2 58.91L14.15 59.13L14.11 59.34L14.06 59.56L14.03 59.77L13.99 59.99L13.96 60.2L13.93 60.41L13.85 61.08L13.83 61.28L13.79 61.72L13.76 62.37L13.76 62.59L13.75 62.81L13.75 63.85L13.76 63.91L13.76 64.18L13.77 64.25L13.77 64.51L13.78 64.58L13.78 64.65L13.79 64.71L13.79 64.78L13.8 64.84L13.8 64.91L13.81 64.97L13.81 65.04L13.82 65.1L13.82 65.17L13.85 65.38L13.85 65.51L13.86 65.57L13.87 65.64L13.87 65.7L13.88 65.77L13.89 65.82L13.9 65.9L13.9 65.92L13.91 65.95L13.91 66.05L13.9 66.07L13.9 66.12L13.89 66.15L13.89 66.18L13.87 66.22L13.86 66.25L13.86 66.27L13.85 66.3L13.84 66.32L13.83 66.35L13.82 66.36L13.81 66.39L13.79 66.41L13.77 66.45L13.76 66.48L13.73 66.51L13.71 66.54L13.6 66.65L13.56 66.68L13.54 66.69L13.52 66.71L13.49 66.72L13.45 66.74L13.42 66.76L13.4 66.77L13.32 66.8L13.31 66.8L13.23 66.83L13.2 66.83L13.17 66.84L13.13 66.84L13.1 66.85L13 66.85L12.97 66.84L12.92 66.84L12.89 66.83L12.87 66.83L12.85 66.82L12.82 66.82L12.78 66.8L12.76 66.8L12.71 66.78L12.69 66.77L12.66 66.75L12.62 66.73L12.59 66.72L12.58 66.7L12.55 66.69L12.51 66.65L12.49 66.64L12.07 66.28L11.67 65.92L11.28 65.56L10.89 65.18L10.51 64.8L10.15 64.42L9.79 64.02L9.1 63.21L8.45 62.36L8.14 61.94L7.84 61.5L7.55 61.07L7.27 60.62L7 60.16L6.74 59.71L6.24 58.78L5.79 57.82L5.58 57.35L5.38 56.85L5.01 55.88L4.84 55.38L4.69 54.87L4.54 54.36L4.28 53.35L4.16 52.84L4.06 52.31L3.97 51.8L3.89 51.27L3.82 50.75L3.75 50.21L3.71 49.68L3.68 49.15L3.64 48.09L3.66 47.51L3.68 46.96L3.72 46.4L3.77 45.85L3.83 45.29L3.9 44.75L4 44.19L4.1 43.65L4.21 43.11L4.34 42.57L4.48 42.03L4.63 41.5L4.78 40.98L4.95 40.45L5.33 39.42L5.54 38.91L5.76 38.4L5.98 37.91L6.23 37.41L6.48 36.92L6.74 36.44L7.01 35.95L7.3 35.49L7.6 35.02L8.21 34.11L8.88 33.22L9.59 32.36L9.96 31.94L10.34 31.53L10.72 31.12L11.12 30.74L11.54 30.35L12.37 29.6L12.8 29.24L13.25 28.89L13.53 28.68L14.34 28.07L15.17 27.51L15.47 27.32L15.75 27.14L16.32 26.78L16.62 26.61L16.91 26.44L17.5 26.12L17.8 25.96L18.11 25.81L18.41 25.65L18.71 25.51L19.02 25.36L19.64 25.09L19.94 24.96L20.26 24.82L21.2 24.45L21.53 24.34L21.85 24.22L22.49 24.02L23.15 23.82L23.79 23.64L24.45 23.47L24.79 23.39L25.46 23.25L26.19 23.14L26.44 23.11L26.91 23.05L27.16 23.02L27.65 22.96L27.89 22.94L28.88 22.83L29.12 22.81L29.61 22.76L29.86 22.74L30.1 22.72L30.34 22.7L30.59 22.67L31.33 22.62L31.57 22.6L32.55 22.53L33.05 22.51L33.29 22.5L33.54 22.48L34.02 22.46L34.28 22.44L35.26 22.41L35.26 15.62L35.27 15.6L35.27 15.55L35.28 15.53L35.28 15.46L35.29 15.44L35.31 15.39L35.32 15.37L35.33 15.34L35.35 15.3L35.35 15.28L35.37 15.26L35.38 15.24L35.4 15.22L35.41 15.2L35.43 15.17L35.43 15.16L35.56 15.03L35.58 15.02L35.61 14.99L35.64 14.98L35.65 14.96L35.67 14.95L35.7 14.94L35.76 14.91L35.79 14.89L35.83 14.87L35.88 14.87L35.9 14.86L35.93 14.85L35.95 14.85L35.97 14.85L36.02 14.85L36.04 14.84L36.18 14.84L36.21 14.85L36.26 14.85ZM36.97 23.25L36.97 23.33L36.92 23.51L36.89 23.58L36.88 23.61L36.8 23.73L36.77 23.76L36.76 23.78L36.68 23.86L36.65 23.88L36.61 23.91L36.55 23.94L36.53 23.96L36.46 24L36.43 24L36.39 24.02L36.32 24.04L36.24 24.06L36.21 24.06L36.17 24.07L36.13 24.07L35.27 24.09L34.98 24.1L34.7 24.12L34.41 24.12L34.12 24.14L33.83 24.14L32.97 24.2L32.68 24.21L31.25 24.31L30.97 24.33L29.81 24.44L29.53 24.46L28.96 24.51L28.67 24.55L28.38 24.58L28.09 24.6L27.81 24.64L27.53 24.67L26.95 24.74L26.68 24.78L26.09 24.85L25.81 24.89L24.76 25.12L24.42 25.21L23.73 25.4L23.39 25.49L22.72 25.71L22.38 25.83L22.05 25.94L21.38 26.19L20.73 26.44L20.07 26.73L19.43 27.03L18.8 27.34L18.17 27.67L17.55 28.01L16.95 28.38L16.65 28.57L15.76 29.14L15.47 29.34L14.89 29.77L14.61 29.97L14.33 30.19L13.87 30.56L13.41 30.94L12.97 31.32L12.55 31.71L12.13 32.12L11.72 32.53L11.33 32.96L10.95 33.38L10.57 33.83L10.21 34.28L9.86 34.73L9.21 35.67L8.89 36.15L8.59 36.64L8.3 37.12L7.77 38.13L7.52 38.65L7.28 39.17L7.06 39.69L6.65 40.76L6.47 41.3L6.3 41.84L6.14 42.39L6 42.94L5.87 43.5L5.76 44.06L5.66 44.63L5.57 45.2L5.5 45.77L5.4 46.92L5.37 47.5L5.36 48.09L5.37 48.57L5.41 49.57L5.45 50.05L5.5 50.55L5.56 51.02L5.63 51.51L5.71 51.99L5.81 52.48L5.9 52.95L6.02 53.42L6.14 53.89L6.28 54.36L6.58 55.3L6.74 55.74L7.09 56.65L7.29 57.1L7.5 57.55L7.71 57.98L8.16 58.85L8.41 59.27L8.66 59.69L8.93 60.1L9.2 60.51L9.47 60.92L9.76 61.3L10.06 61.7L10.37 62.09L10.68 62.47L11.35 63.21L11.69 63.57L12.04 63.92L12.04 63.39L12.03 63.35L12.03 62.99L12.06 61.94L12.1 61.4L12.13 61.15L12.15 60.89L12.18 60.63L12.29 59.84L12.33 59.59L12.37 59.32L12.43 59.06L12.53 58.56L12.59 58.29L12.72 57.78L12.85 57.28L13.01 56.77L13.09 56.53L13.17 56.27L13.25 56.03L13.35 55.77L13.44 55.52L13.54 55.29L13.74 54.79L13.96 54.31L14.06 54.07L14.46 53.31L14.88 52.58L15.11 52.22L15.32 51.87L15.55 51.51L15.8 51.16L16.04 50.81L16.29 50.48L16.54 50.14L16.81 49.8L17.07 49.49L17.35 49.16L17.62 48.84L18.49 47.92L18.78 47.62L19.09 47.32L19.4 47.04L19.71 46.76L20.03 46.47L20.36 46.2L20.68 45.95L21.01 45.68L21.35 45.42L21.7 45.17L22.39 44.69L23.12 44.23L23.48 44L23.85 43.8L24.59 43.37L24.87 43.23L25.14 43.08L25.42 42.95L25.97 42.68L26.25 42.57L26.53 42.46L27.11 42.23L27.4 42.12L27.99 41.92L28.29 41.83L28.9 41.65L29.2 41.57L29.52 41.49L30.16 41.36L30.8 41.24L31.13 41.19L31.45 41.13L32.14 41.05L32.82 40.98L33.17 40.94L33.53 40.91L33.88 40.9L34.24 40.87L34.61 40.86L34.98 40.84L35.36 40.84L35.74 40.83L36.16 40.83L36.2 40.84L36.24 40.84L36.31 40.86L36.39 40.88L36.42 40.9L36.46 40.91L36.48 40.92L36.55 40.96L36.58 40.98L36.61 40.99L36.64 41.02L36.67 41.04L36.77 41.14L36.79 41.17L36.82 41.2L36.84 41.23L36.85 41.26L36.89 41.32L36.91 41.36L36.91 41.39L36.93 41.43L36.97 41.56L36.97 41.64L36.98 41.67L36.98 47.38L54.47 32.45L36.98 17.51L36.98 23.22L36.97 23.25Z" id="a3kelxcGm"></path></defs><g><g><g><use xlink:href="#c6NhwuO2LB" opacity="1" fill="#000000" fill-opacity="1"></use><g><use xlink:href="#c6NhwuO2LB" opacity="1" fill-opacity="0" stroke="#000000" stroke-width="1" stroke-opacity="0"></use></g></g><g><use xlink:href="#f1ZFKhZbc3" opacity="1" fill="#000000" fill-opacity="0"></use><g><use xlink:href="#f1ZFKhZbc3" opacity="1" fill-opacity="0" stroke="#000000" stroke-width="1" stroke-opacity="0"></use></g></g><g><use xlink:href="#grNqosIIg" opacity="1" fill="#000000" fill-opacity="0"></use><g><use xlink:href="#grNqosIIg" opacity="1" fill-opacity="0" stroke="#000000" stroke-width="1" stroke-opacity="0"></use></g></g><g><use xlink:href="#a3kelxcGm" opacity="1" fill="#000000" fill-opacity="0"></use><g><use xlink:href="#a3kelxcGm" opacity="1" fill-opacity="0" stroke="#000000" stroke-width="1" stroke-opacity="0"></use></g></g></g></g></svg>