<?xml version="1.0" encoding="iso-8859-1"?>

<!-- Generator: Adobe Illustrator 19.0.0, SVG Export Plug-In . SVG Version: 6.00 Build 0)  -->
<svg pointer-events= "stroke" version="1.1" id="Capa_1" xmlns="http://www.w3.org/2000/svg" xmlns:xlink="http://www.w3.org/1999/xlink" x="0px" y="0px"
	 viewBox="0 0 512 512" style="enable-background:new 0 0 512 512;" xml:space="preserve">
<g>
	<g>
		<path d="M205.606,245.393l-180-179.999C16.191,55.974,0,62.651,0,76v360c0,13.318,16.165,20.05,25.606,10.606l180-180
			C211.464,260.748,211.464,251.251,205.606,245.393z M30,399.787V112.213L173.787,256L30,399.787z"/>
	</g>
</g>
<g>
	<g>
		<path d="M486.394,65.394l-180,180c-5.858,5.858-5.858,15.355,0,21.213l180,180C495.776,455.992,512,449.405,512,436V76
			C512,62.679,495.833,55.954,486.394,65.394z M482,399.787L338.213,256L482,112.213V399.787z"/>
	</g>
</g>
<g>
	<g>
		<path d="M257,391c-8.284,0-15,6.716-15,15v60c0,8.284,6.716,15,15,15s15-6.716,15-15v-60C272,397.716,265.284,391,257,391z"/>
	</g>
</g>
<g>
	<g>
		<path d="M257,271c-8.284,0-15,6.716-15,15v60c0,8.284,6.716,15,15,15s15-6.716,15-15v-60C272,277.716,265.284,271,257,271z"/>
	</g>
</g>
<g>
	<g>
		<path d="M257,151c-8.284,0-15,6.716-15,15v60c0,8.284,6.716,15,15,15s15-6.716,15-15v-60C272,157.716,265.284,151,257,151z"/>
	</g>
</g>
<g>
	<g>
		<path d="M257,31c-8.284,0-15,6.716-15,15v60c0,8.284,6.716,15,15,15s15-6.716,15-15V46C272,37.716,265.284,31,257,31z"/>
	</g>
</g>
<g>
</g>
<g>
</g>
<g>
</g>
<g>
</g>
<g>
</g>
<g>
</g>
<g>
</g>
<g>
</g>
<g>
</g>
<g>
</g>
<g>
</g>
<g>
</g>
<g>
</g>
<g>
</g>
<g>
</g>
</svg>