<?xml version="1.0" encoding="iso-8859-1"?>
<!-- Generator: Adobe Illustrator 19.0.0, SVG Export Plug-In . SVG Version: 6.00 Build 0)  -->
<svg version="1.1" id="Layer_1" xmlns="http://www.w3.org/2000/svg" xmlns:xlink="http://www.w3.org/1999/xlink" x="0px" y="0px"
	 viewBox="0 0 512.001 512.001" style="enable-background:new 0 0 512.001 512.001;" xml:space="preserve">
<g>
	<g>
		<path d="M294.609,316.604h-0.139c-5.771,0-10.449,4.678-10.449,10.449c0,5.771,4.678,10.449,10.449,10.449h0.139
			c5.771,0,10.449-4.678,10.449-10.449C305.058,321.282,300.38,316.604,294.609,316.604z"/>
	</g>
</g>
<g>
	<g>
		<path d="M294.894,175.543h-0.139c-5.771,0-10.449,4.678-10.449,10.449c0,5.771,4.678,10.449,10.449,10.449h0.139
			c5.771,0,10.449-4.678,10.449-10.449C305.343,180.221,300.665,175.543,294.894,175.543z"/>
	</g>
</g>
<g>
	<g>
		<path d="M510.606,463.944L265.055,37.626c-1.866-3.238-5.318-5.234-9.055-5.234c-3.737,0-7.189,1.996-9.055,5.234L1.394,463.944
			c-1.862,3.233-1.859,7.214,0.008,10.445c1.867,3.231,5.315,5.219,9.047,5.219h491.102c3.731,0,7.18-1.99,9.047-5.22
			C512.465,471.157,512.468,467.177,510.606,463.944z M28.526,458.711L98.34,337.502h161.926c5.771,0,10.449-4.678,10.449-10.449
			c0-5.771-4.678-10.449-10.449-10.449h-149.89l69.212-120.163h80.961c5.771,0,10.449-4.678,10.449-10.449
			c0-5.771-4.678-10.449-10.449-10.449h-68.924L256,63.777l145.624,252.828h-74.184c-5.771,0-10.449,4.678-10.449,10.449
			c0,5.771,4.678,10.449,10.449,10.449h86.221l69.813,121.208H28.526z"/>
	</g>
</g>
<g>
</g>
<g>
</g>
<g>
</g>
<g>
</g>
<g>
</g>
<g>
</g>
<g>
</g>
<g>
</g>
<g>
</g>
<g>
</g>
<g>
</g>
<g>
</g>
<g>
</g>
<g>
</g>
<g>
</g>
</svg>
