<?xml version="1.0" encoding="iso-8859-1"?>
<!-- Generator: Adobe Illustrator 19.0.0, SVG Export Plug-In . SVG Version: 6.00 Build 0)  -->
<svg version="1.1" id="Capa_1" xmlns="http://www.w3.org/2000/svg" xmlns:xlink="http://www.w3.org/1999/xlink" x="0px" y="0px"
	 viewBox="0 0 384 384" style="enable-background:new 0 0 384 384;" xml:space="preserve">
<g>
	<g>
		<path d="M376.304,178.327l-224-136c-4.944-3-11.12-3.104-16.152-0.272C131.12,44.887,128,50.215,128,55.999v136
			c0,8.832,7.168,16,16,16c8.832,0,16-7.168,16-16V84.431l177.168,107.568L160,299.567v-43.568c0-8.832-7.168-16-16-16
			c-8.832,0-16,7.168-16,16v72c0,5.784,3.12,11.112,8.152,13.944c2.44,1.376,5.144,2.056,7.848,2.056
			c2.88,0,5.752-0.776,8.304-2.328l224-136c4.776-2.896,7.696-8.08,7.696-13.672C384,186.407,381.08,181.223,376.304,178.327z"/>
	</g>
</g>
<g>
	<g>
		<path d="M88,279.999H16c-8.832,0-16,7.168-16,16c0,8.832,7.168,16,16,16h72c8.832,0,16-7.168,16-16
			C104,287.167,96.832,279.999,88,279.999z"/>
	</g>
</g>
<g>
	<g>
		<path d="M56,71.999H16c-8.832,0-16,7.168-16,16c0,8.832,7.168,16,16,16h40c8.832,0,16-7.168,16-16
			C72,79.167,64.832,71.999,56,71.999z"/>
	</g>
</g>
<g>
	<g>
		<path d="M88,135.999h-8c-8.832,0-16,7.168-16,16c0,8.832,7.168,16,16,16h8c8.832,0,16-7.168,16-16
			C104,143.167,96.832,135.999,88,135.999z"/>
	</g>
</g>
<g>
	<g>
		<path d="M72,207.999H48c-8.832,0-16,7.168-16,16c0,8.832,7.168,16,16,16h24c8.832,0,16-7.168,16-16
			C88,215.167,80.832,207.999,72,207.999z"/>
	</g>
</g>
<g>
</g>
<g>
</g>
<g>
</g>
<g>
</g>
<g>
</g>
<g>
</g>
<g>
</g>
<g>
</g>
<g>
</g>
<g>
</g>
<g>
</g>
<g>
</g>
<g>
</g>
<g>
</g>
<g>
</g>
</svg>
