<?xml version="1.0" encoding="UTF-8" standalone="no"?>
<!DOCTYPE svg PUBLIC "-//W3C//DTD SVG 1.1//EN" "http://www.w3.org/Graphics/SVG/1.1/DTD/svg11.dtd">
<svg version="1.1" xmlns="http://www.w3.org/2000/svg" xmlns:xlink="http://www.w3.org/1999/xlink" preserveAspectRatio="xMidYMid meet" viewBox="0 0 95.82 95.82" width="95.82" height="95.82"><defs><path d="M40.59 15.76L40.62 15.77L40.64 15.78L40.67 15.78L40.82 15.83L40.84 15.84L40.87 15.86L40.9 15.87L40.93 15.88L40.96 15.9L40.98 15.92L41.01 15.93L41.03 15.95L41.06 15.97L41.08 15.98L41.12 16.02L41.15 16.04L41.17 16.06L41.19 16.1L41.21 16.12L41.22 16.14L41.24 16.16L41.26 16.19L41.28 16.21L41.29 16.23L41.31 16.26L41.32 16.28L41.34 16.31L41.35 16.34L41.36 16.36L41.37 16.39L41.39 16.42L41.4 16.44L41.41 16.47L41.41 16.5L41.43 16.56L41.44 16.58L41.44 16.61L41.45 16.64L41.45 16.7L41.46 16.74L41.46 25.22L41.76 25.23L42.06 25.24L42.37 25.26L42.67 25.27L42.97 25.28L43.27 25.3L43.58 25.31L43.87 25.33L44.18 25.34L44.78 25.38L45.08 25.39L45.69 25.43L45.98 25.46L46.59 25.5L46.89 25.52L47.19 25.55L47.49 25.57L48.1 25.63L48.39 25.65L49 25.71L49.29 25.74L49.6 25.77L49.89 25.81L50.2 25.85L50.49 25.88L50.8 25.92L51.09 25.95L51.4 25.99L51.7 26.02L52 26.06L52.3 26.1L52.89 26.18L53.19 26.22L53.49 26.26L53.9 26.35L54.31 26.44L55.53 26.75L55.93 26.86L56.33 26.98L57.12 27.23L57.92 27.49L58.31 27.63L58.7 27.78L59.09 27.93L59.48 28.08L59.87 28.24L60.25 28.39L60.63 28.57L61.01 28.74L61.39 28.91L62.14 29.28L62.51 29.46L62.88 29.65L63.61 30.06L63.97 30.26L64.34 30.47L64.69 30.69L65.05 30.9L65.4 31.13L65.75 31.35L66.1 31.58L66.45 31.82L66.78 32.06L67.13 32.3L67.46 32.55L68.13 33.06L68.46 33.31L69.01 33.76L69.55 34.2L70.58 35.14L71.08 35.63L71.57 36.11L72.04 36.62L72.96 37.66L73.39 38.19L73.82 38.73L74.24 39.28L74.64 39.84L75.03 40.41L75.41 40.98L75.77 41.57L76.12 42.16L76.45 42.76L76.78 43.35L77.08 43.96L77.38 44.58L77.66 45.21L77.93 45.84L78.19 46.48L78.42 47.12L78.65 47.77L78.86 48.42L79.06 49.08L79.24 49.74L79.41 50.41L79.56 51.09L79.7 51.76L79.82 52.44L79.93 53.14L80.02 53.82L80.1 54.51L80.16 55.21L80.21 55.9L80.24 56.6L80.25 57.3L80.24 57.97L80.21 58.64L80.17 59.3L80.11 59.97L80.04 60.63L79.96 61.28L79.85 61.94L79.74 62.59L79.62 63.24L79.48 63.88L79.33 64.52L79.16 65.16L78.98 65.79L78.79 66.42L78.58 67.04L78.36 67.66L78.13 68.27L77.88 68.88L77.62 69.49L77.36 70.08L77.07 70.66L76.78 71.25L76.46 71.83L76.15 72.4L75.81 72.97L75.47 73.53L75.11 74.08L74.36 75.15L73.96 75.68L73.56 76.2L73.14 76.72L72.71 77.22L72.28 77.71L71.83 78.2L71.36 78.68L70.9 79.15L70.41 79.6L69.91 80.06L69.41 80.5L69.38 80.52L69.36 80.54L69.3 80.58L69.28 80.59L69.25 80.61L69.22 80.62L69.2 80.64L69.14 80.66L69.11 80.68L68.99 80.72L68.96 80.72L68.9 80.74L68.83 80.74L68.8 80.75L68.62 80.75L68.59 80.74L68.56 80.74L68.53 80.73L68.5 80.73L68.29 80.66L68.26 80.64L68.22 80.63L68.19 80.61L68.17 80.6L68.11 80.56L68.09 80.54L68.06 80.52L68.02 80.48L67.99 80.46L67.93 80.39L67.91 80.36L67.89 80.34L67.87 80.31L67.85 80.29L67.84 80.26L67.82 80.24L67.81 80.21L67.79 80.18L67.78 80.16L67.77 80.13L67.75 80.1L67.71 79.98L67.71 79.95L67.69 79.89L67.69 79.86L67.68 79.83L67.68 79.57L67.72 79.25L67.73 79.16L67.75 78.99L67.75 78.91L67.78 78.67L67.78 78.59L67.79 78.5L67.79 78.41L67.81 78.25L67.81 78.17L67.82 78.09L67.82 78.01L67.83 77.92L67.83 77.75L67.84 77.67L67.84 77.59L67.85 77.51L67.85 77.26L67.86 77.18L67.86 76.85L67.87 76.76L67.87 75.99L67.86 75.71L67.86 75.44L67.85 75.17L67.84 74.9L67.82 74.63L67.81 74.35L67.79 74.08L67.76 73.8L67.74 73.54L67.68 72.99L67.64 72.73L67.55 72.18L67.51 71.91L67.46 71.65L67.41 71.38L67.31 70.85L67.25 70.57L67.19 70.31L67.12 70.05L67.06 69.78L66.99 69.52L66.9 69.25L66.83 69L66.67 68.47L66.58 68.22L66.5 67.95L66.32 67.45L65.91 66.43L65.69 65.92L65.57 65.68L65.17 64.89L64.95 64.5L64.73 64.11L64.28 63.36L64.05 62.99L63.56 62.26L63.06 61.54L62.79 61.19L62.53 60.84L61.98 60.15L61.69 59.82L61.4 59.49L61.12 59.17L60.81 58.84L60.52 58.53L59.9 57.91L59.57 57.6L59.26 57.31L58.93 57.01L57.93 56.16L57.58 55.89L57.23 55.62L56.88 55.36L56.53 55.11L56.16 54.85L55.43 54.36L54.68 53.9L54.29 53.67L53.91 53.46L53.52 53.25L53.24 53.1L52.96 52.95L52.68 52.82L52.4 52.68L52.11 52.55L51.54 52.3L51.24 52.18L50.96 52.06L50.37 51.84L49.49 51.53L49.18 51.44L48.89 51.35L48.58 51.27L48.28 51.18L47.98 51.1L47.68 51.02L47.37 50.95L47.07 50.89L46.76 50.82L46.45 50.77L46.15 50.71L45.84 50.66L45.53 50.61L45.22 50.57L44.59 50.48L44.29 50.45L43.97 50.43L43.66 50.4L43.34 50.38L43.04 50.37L42.72 50.35L42.41 50.35L42.09 50.34L41.46 50.34L41.46 58.79L41.45 58.82L41.45 58.88L41.44 58.91L41.44 58.94L41.41 59.04L41.41 59.06L41.39 59.12L41.37 59.15L41.36 59.17L41.34 59.23L41.32 59.25L41.31 59.28L41.29 59.3L41.28 59.33L41.24 59.37L41.22 59.4L41.21 59.42L41.15 59.48L41.12 59.5L41.06 59.56L41.03 59.58L41.01 59.59L40.98 59.61L40.96 59.64L40.93 59.65L40.9 59.67L40.84 59.69L40.82 59.7L40.79 59.72L40.73 59.74L40.7 59.74L40.64 59.76L40.62 59.77L40.59 59.77L40.56 59.78L40.44 59.78L40.41 59.79L40.38 59.78L40.3 59.78L40.26 59.77L40.23 59.77L40.2 59.76L40.17 59.76L40.11 59.74L40.09 59.73L40.06 59.73L40.03 59.72L40 59.7L39.98 59.69L39.92 59.67L39.9 59.65L39.87 59.64L39.85 59.61L39.82 59.6L39.8 59.58L39.77 59.56L39.73 59.52L15.62 38.56L15.6 38.54L15.58 38.53L15.56 38.51L15.54 38.5L15.53 38.48L15.48 38.43L15.47 38.41L15.44 38.38L15.41 38.32L15.39 38.3L15.37 38.26L15.36 38.25L15.33 38.19L15.33 38.16L15.32 38.14L15.31 38.11L15.3 38.09L15.3 38.07L15.28 38.03L15.28 38.01L15.27 37.99L15.27 37.94L15.26 37.92L15.26 37.88L15.25 37.86L15.25 37.68L15.26 37.66L15.26 37.61L15.27 37.59L15.27 37.55L15.28 37.53L15.28 37.49L15.3 37.45L15.3 37.43L15.33 37.37L15.33 37.35L15.39 37.23L15.41 37.21L15.42 37.19L15.43 37.18L15.45 37.14L15.5 37.09L15.51 37.07L15.53 37.06L15.54 37.04L15.6 36.99L15.62 36.98L39.73 16L39.77 15.96L39.8 15.95L39.82 15.93L39.85 15.91L39.87 15.9L39.9 15.88L39.92 15.87L39.95 15.86L39.98 15.84L40 15.83L40.09 15.8L40.11 15.79L40.14 15.78L40.17 15.78L40.2 15.77L40.23 15.77L40.26 15.76L40.3 15.76L40.32 15.75L40.5 15.75L40.53 15.76L40.59 15.76ZM39.36 56.44L39.36 49.26L39.37 49.2L39.37 49.16L39.39 49.08L39.39 49.03L39.41 48.99L39.43 48.91L39.45 48.87L39.47 48.84L39.51 48.76L39.53 48.73L39.55 48.69L39.58 48.66L39.6 48.63L39.76 48.47L39.79 48.45L39.83 48.43L39.86 48.4L39.94 48.36L39.97 48.34L40.01 48.33L40.05 48.31L40.17 48.28L40.22 48.27L40.31 48.25L40.83 48.25L41.59 48.23L41.96 48.23L43.09 48.26L43.46 48.28L43.83 48.31L44.58 48.37L44.96 48.42L45.32 48.46L45.7 48.51L46.8 48.7L47.17 48.77L47.54 48.85L47.89 48.93L48.26 49.01L48.62 49.1L48.98 49.2L49.34 49.31L49.7 49.41L50.06 49.52L51.12 49.89L51.47 50.02L51.82 50.16L52.17 50.29L52.86 50.6L53.19 50.75L53.54 50.91L53.87 51.07L54.54 51.42L55.42 51.91L55.84 52.16L56.7 52.69L57.1 52.96L57.52 53.25L57.93 53.53L58.32 53.83L59.11 54.44L59.5 54.75L59.88 55.06L60.25 55.39L60.98 56.06L61.34 56.4L62.04 57.1L62.39 57.46L62.72 57.83L63.05 58.19L63.7 58.94L64 59.33L64.61 60.12L64.9 60.52L65.19 60.93L65.46 61.33L65.74 61.75L66.01 62.17L66.77 63.45L67.01 63.9L67.24 64.34L67.47 64.78L67.6 65.07L67.73 65.35L67.85 65.65L67.97 65.93L68.08 66.22L68.42 67.1L68.52 67.39L68.61 67.69L68.71 67.98L68.8 68.28L68.9 68.58L68.98 68.88L69.06 69.18L69.14 69.48L69.35 70.39L69.54 71.3L69.64 71.91L69.68 72.22L69.73 72.53L69.77 72.84L69.8 73.15L69.83 73.46L69.86 73.77L69.89 74.08L69.91 74.39L69.92 74.71L69.94 75.01L69.96 75.64L69.96 76.74L69.95 76.76L69.95 77.1L70.36 76.69L70.76 76.26L71.15 75.82L71.53 75.39L71.9 74.94L72.26 74.48L72.61 74.02L72.95 73.55L73.28 73.07L73.61 72.59L74.22 71.62L74.5 71.12L74.79 70.61L75.05 70.11L75.56 69.07L75.79 68.54L76.01 68.01L76.23 67.49L76.43 66.95L76.62 66.4L76.81 65.86L76.98 65.31L77.14 64.75L77.43 63.64L77.55 63.08L77.66 62.51L77.76 61.94L77.85 61.36L77.93 60.79L78.06 59.64L78.1 59.06L78.13 58.48L78.15 57.89L78.16 57.3L78.14 56.62L78.11 55.93L78.06 55.25L78 54.57L77.91 53.89L77.82 53.22L77.71 52.55L77.58 51.88L77.44 51.22L77.28 50.56L77.11 49.91L76.92 49.26L76.72 48.61L76.5 47.98L76.27 47.34L76.03 46.72L75.76 46.1L75.49 45.48L75.19 44.87L74.89 44.27L74.57 43.68L74.24 43.09L73.89 42.51L73.54 41.94L73.16 41.38L72.78 40.84L72.38 40.29L71.96 39.75L71.54 39.22L71.1 38.71L70.65 38.21L70.19 37.71L69.71 37.22L69.22 36.74L68.72 36.28L68.2 35.82L67.69 35.38L67.15 34.95L66.82 34.69L66.15 34.18L65.82 33.94L65.48 33.71L65.15 33.46L64.8 33.24L64.46 33.01L64.1 32.78L63.76 32.57L63.05 32.14L62.69 31.94L62.32 31.74L61.59 31.35L60.86 30.98L60.49 30.8L60.11 30.63L59.73 30.47L59.36 30.29L58.97 30.14L58.6 29.98L58.21 29.84L57.83 29.68L57.44 29.54L57.04 29.41L56.66 29.28L55.47 28.91L55.07 28.8L54.67 28.69L54.27 28.59L53.05 28.31L52.72 28.27L52.39 28.22L51.72 28.14L51.4 28.1L50.73 28.02L50.4 27.98L50.07 27.95L49.73 27.91L49.4 27.88L49.07 27.84L47.73 27.71L47.4 27.68L46.73 27.62L46.4 27.6L46.06 27.57L45.73 27.55L45.4 27.52L43.39 27.4L43.06 27.39L42.72 27.37L42.4 27.36L42.06 27.34L41.39 27.32L41.06 27.3L40.39 27.28L40.3 27.28L40.25 27.27L40.21 27.27L40.17 27.26L40.12 27.25L40.08 27.23L40.04 27.22L40.01 27.21L39.89 27.15L39.86 27.13L39.82 27.1L39.79 27.07L39.76 27.05L39.6 26.9L39.58 26.87L39.55 26.84L39.53 26.8L39.51 26.77L39.49 26.73L39.47 26.7L39.43 26.62L39.41 26.54L39.39 26.5L39.38 26.45L39.38 26.41L39.37 26.36L39.37 26.32L39.36 26.28L39.36 19.1L17.9 37.77L39.36 56.44Z" id="cGgTj3PDL"></path><path d="M40.59 15.76L40.62 15.77L40.64 15.78L40.67 15.78L40.82 15.83L40.84 15.84L40.87 15.86L40.9 15.87L40.93 15.88L40.96 15.9L40.98 15.92L41.01 15.93L41.03 15.95L41.06 15.97L41.08 15.98L41.12 16.02L41.15 16.04L41.17 16.06L41.19 16.1L41.21 16.12L41.22 16.14L41.24 16.16L41.26 16.19L41.28 16.21L41.29 16.23L41.31 16.26L41.32 16.28L41.34 16.31L41.35 16.34L41.36 16.36L41.37 16.39L41.39 16.42L41.4 16.44L41.41 16.47L41.41 16.5L41.43 16.56L41.44 16.58L41.44 16.61L41.45 16.64L41.45 16.7L41.46 16.74L41.46 25.22L41.76 25.23L42.06 25.24L42.37 25.26L42.67 25.27L42.97 25.28L43.27 25.3L43.58 25.31L43.87 25.33L44.18 25.34L44.78 25.38L45.08 25.39L45.69 25.43L45.98 25.46L46.59 25.5L46.89 25.52L47.19 25.55L47.49 25.57L48.1 25.63L48.39 25.65L49 25.71L49.29 25.74L49.6 25.77L49.89 25.81L50.2 25.85L50.49 25.88L50.8 25.92L51.09 25.95L51.4 25.99L51.7 26.02L52 26.06L52.3 26.1L52.89 26.18L53.19 26.22L53.49 26.26L53.9 26.35L54.31 26.44L55.53 26.75L55.93 26.86L56.33 26.98L57.12 27.23L57.92 27.49L58.31 27.63L58.7 27.78L59.09 27.93L59.48 28.08L59.87 28.24L60.25 28.39L60.63 28.57L61.01 28.74L61.39 28.91L62.14 29.28L62.51 29.46L62.88 29.65L63.61 30.06L63.97 30.26L64.34 30.47L64.69 30.69L65.05 30.9L65.4 31.13L65.75 31.35L66.1 31.58L66.45 31.82L66.78 32.06L67.13 32.3L67.46 32.55L68.13 33.06L68.46 33.31L69.01 33.76L69.55 34.2L70.58 35.14L71.08 35.63L71.57 36.11L72.04 36.62L72.96 37.66L73.39 38.19L73.82 38.73L74.24 39.28L74.64 39.84L75.03 40.41L75.41 40.98L75.77 41.57L76.12 42.16L76.45 42.76L76.78 43.35L77.08 43.96L77.38 44.58L77.66 45.21L77.93 45.84L78.19 46.48L78.42 47.12L78.65 47.77L78.86 48.42L79.06 49.08L79.24 49.74L79.41 50.41L79.56 51.09L79.7 51.76L79.82 52.44L79.93 53.14L80.02 53.82L80.1 54.51L80.16 55.21L80.21 55.9L80.24 56.6L80.25 57.3L80.24 57.97L80.21 58.64L80.17 59.3L80.11 59.97L80.04 60.63L79.96 61.28L79.85 61.94L79.74 62.59L79.62 63.24L79.48 63.88L79.33 64.52L79.16 65.16L78.98 65.79L78.79 66.42L78.58 67.04L78.36 67.66L78.13 68.27L77.88 68.88L77.62 69.49L77.36 70.08L77.07 70.66L76.78 71.25L76.46 71.83L76.15 72.4L75.81 72.97L75.47 73.53L75.11 74.08L74.36 75.15L73.96 75.68L73.56 76.2L73.14 76.72L72.71 77.22L72.28 77.71L71.83 78.2L71.36 78.68L70.9 79.15L70.41 79.6L69.91 80.06L69.41 80.5L69.38 80.52L69.36 80.54L69.3 80.58L69.28 80.59L69.25 80.61L69.22 80.62L69.2 80.64L69.14 80.66L69.11 80.68L68.99 80.72L68.96 80.72L68.9 80.74L68.83 80.74L68.8 80.75L68.62 80.75L68.59 80.74L68.56 80.74L68.53 80.73L68.5 80.73L68.29 80.66L68.26 80.64L68.22 80.63L68.19 80.61L68.17 80.6L68.11 80.56L68.09 80.54L68.06 80.52L68.02 80.48L67.99 80.46L67.93 80.39L67.91 80.36L67.89 80.34L67.87 80.31L67.85 80.29L67.84 80.26L67.82 80.24L67.81 80.21L67.79 80.18L67.78 80.16L67.77 80.13L67.75 80.1L67.71 79.98L67.71 79.95L67.69 79.89L67.69 79.86L67.68 79.83L67.68 79.57L67.72 79.25L67.73 79.16L67.75 78.99L67.75 78.91L67.78 78.67L67.78 78.59L67.79 78.5L67.79 78.41L67.81 78.25L67.81 78.17L67.82 78.09L67.82 78.01L67.83 77.92L67.83 77.75L67.84 77.67L67.84 77.59L67.85 77.51L67.85 77.26L67.86 77.18L67.86 76.85L67.87 76.76L67.87 75.99L67.86 75.71L67.86 75.44L67.85 75.17L67.84 74.9L67.82 74.63L67.81 74.35L67.79 74.08L67.76 73.8L67.74 73.54L67.68 72.99L67.64 72.73L67.55 72.18L67.51 71.91L67.46 71.65L67.41 71.38L67.31 70.85L67.25 70.57L67.19 70.31L67.12 70.05L67.06 69.78L66.99 69.52L66.9 69.25L66.83 69L66.67 68.47L66.58 68.22L66.5 67.95L66.32 67.45L65.91 66.43L65.69 65.92L65.57 65.68L65.17 64.89L64.95 64.5L64.73 64.11L64.28 63.36L64.05 62.99L63.56 62.26L63.06 61.54L62.79 61.19L62.53 60.84L61.98 60.15L61.69 59.82L61.4 59.49L61.12 59.17L60.81 58.84L60.52 58.53L59.9 57.91L59.57 57.6L59.26 57.31L58.93 57.01L57.93 56.16L57.58 55.89L57.23 55.62L56.88 55.36L56.53 55.11L56.16 54.85L55.43 54.36L54.68 53.9L54.29 53.67L53.91 53.46L53.52 53.25L53.24 53.1L52.96 52.95L52.68 52.82L52.4 52.68L52.11 52.55L51.54 52.3L51.24 52.18L50.96 52.06L50.37 51.84L49.49 51.53L49.18 51.44L48.89 51.35L48.58 51.27L48.28 51.18L47.98 51.1L47.68 51.02L47.37 50.95L47.07 50.89L46.76 50.82L46.45 50.77L46.15 50.71L45.84 50.66L45.53 50.61L45.22 50.57L44.59 50.48L44.29 50.45L43.97 50.43L43.66 50.4L43.34 50.38L43.04 50.37L42.72 50.35L42.41 50.35L42.09 50.34L41.46 50.34L41.46 58.79L41.45 58.82L41.45 58.88L41.44 58.91L41.44 58.94L41.41 59.04L41.41 59.06L41.39 59.12L41.37 59.15L41.36 59.17L41.34 59.23L41.32 59.25L41.31 59.28L41.29 59.3L41.28 59.33L41.24 59.37L41.22 59.4L41.21 59.42L41.15 59.48L41.12 59.5L41.06 59.56L41.03 59.58L41.01 59.59L40.98 59.61L40.96 59.64L40.93 59.65L40.9 59.67L40.84 59.69L40.82 59.7L40.79 59.72L40.73 59.74L40.7 59.74L40.64 59.76L40.62 59.77L40.59 59.77L40.56 59.78L40.44 59.78L40.41 59.79L40.38 59.78L40.3 59.78L40.26 59.77L40.23 59.77L40.2 59.76L40.17 59.76L40.11 59.74L40.09 59.73L40.06 59.73L40.03 59.72L40 59.7L39.98 59.69L39.92 59.67L39.9 59.65L39.87 59.64L39.85 59.61L39.82 59.6L39.8 59.58L39.77 59.56L39.73 59.52L15.62 38.56L15.6 38.54L15.58 38.53L15.56 38.51L15.54 38.5L15.53 38.48L15.48 38.43L15.47 38.41L15.44 38.38L15.41 38.32L15.39 38.3L15.37 38.26L15.36 38.25L15.33 38.19L15.33 38.16L15.32 38.14L15.31 38.11L15.3 38.09L15.3 38.07L15.28 38.03L15.28 38.01L15.27 37.99L15.27 37.94L15.26 37.92L15.26 37.88L15.25 37.86L15.25 37.68L15.26 37.66L15.26 37.61L15.27 37.59L15.27 37.55L15.28 37.53L15.28 37.49L15.3 37.45L15.3 37.43L15.33 37.37L15.33 37.35L15.39 37.23L15.41 37.21L15.42 37.19L15.43 37.18L15.45 37.14L15.5 37.09L15.51 37.07L15.53 37.06L15.54 37.04L15.6 36.99L15.62 36.98L39.73 16L39.77 15.96L39.8 15.95L39.82 15.93L39.85 15.91L39.87 15.9L39.9 15.88L39.92 15.87L39.95 15.86L39.98 15.84L40 15.83L40.09 15.8L40.11 15.79L40.14 15.78L40.17 15.78L40.2 15.77L40.23 15.77L40.26 15.76L40.3 15.76L40.32 15.75L40.5 15.75L40.53 15.76L40.59 15.76ZM39.36 56.44L39.36 49.26L39.37 49.2L39.37 49.16L39.39 49.08L39.39 49.03L39.41 48.99L39.43 48.91L39.45 48.87L39.47 48.84L39.51 48.76L39.53 48.73L39.55 48.69L39.58 48.66L39.6 48.63L39.76 48.47L39.79 48.45L39.83 48.43L39.86 48.4L39.94 48.36L39.97 48.34L40.01 48.33L40.05 48.31L40.17 48.28L40.22 48.27L40.31 48.25L40.83 48.25L41.59 48.23L41.96 48.23L43.09 48.26L43.46 48.28L43.83 48.31L44.58 48.37L44.96 48.42L45.32 48.46L45.7 48.51L46.8 48.7L47.17 48.77L47.54 48.85L47.89 48.93L48.26 49.01L48.62 49.1L48.98 49.2L49.34 49.31L49.7 49.41L50.06 49.52L51.12 49.89L51.47 50.02L51.82 50.16L52.17 50.29L52.86 50.6L53.19 50.75L53.54 50.91L53.87 51.07L54.54 51.42L55.42 51.91L55.84 52.16L56.7 52.69L57.1 52.96L57.52 53.25L57.93 53.53L58.32 53.83L59.11 54.44L59.5 54.75L59.88 55.06L60.25 55.39L60.98 56.06L61.34 56.4L62.04 57.1L62.39 57.46L62.72 57.83L63.05 58.19L63.7 58.94L64 59.33L64.61 60.12L64.9 60.52L65.19 60.93L65.46 61.33L65.74 61.75L66.01 62.17L66.77 63.45L67.01 63.9L67.24 64.34L67.47 64.78L67.6 65.07L67.73 65.35L67.85 65.65L67.97 65.93L68.08 66.22L68.42 67.1L68.52 67.39L68.61 67.69L68.71 67.98L68.8 68.28L68.9 68.58L68.98 68.88L69.06 69.18L69.14 69.48L69.35 70.39L69.54 71.3L69.64 71.91L69.68 72.22L69.73 72.53L69.77 72.84L69.8 73.15L69.83 73.46L69.86 73.77L69.89 74.08L69.91 74.39L69.92 74.71L69.94 75.01L69.96 75.64L69.96 76.74L69.95 76.76L69.95 77.1L70.36 76.69L70.76 76.26L71.15 75.82L71.53 75.39L71.9 74.94L72.26 74.48L72.61 74.02L72.95 73.55L73.28 73.07L73.61 72.59L74.22 71.62L74.5 71.12L74.79 70.61L75.05 70.11L75.56 69.07L75.79 68.54L76.01 68.01L76.23 67.49L76.43 66.95L76.62 66.4L76.81 65.86L76.98 65.31L77.14 64.75L77.43 63.64L77.55 63.08L77.66 62.51L77.76 61.94L77.85 61.36L77.93 60.79L78.06 59.64L78.1 59.06L78.13 58.48L78.15 57.89L78.16 57.3L78.14 56.62L78.11 55.93L78.06 55.25L78 54.57L77.91 53.89L77.82 53.22L77.71 52.55L77.58 51.88L77.44 51.22L77.28 50.56L77.11 49.91L76.92 49.26L76.72 48.61L76.5 47.98L76.27 47.34L76.03 46.72L75.76 46.1L75.49 45.48L75.19 44.87L74.89 44.27L74.57 43.68L74.24 43.09L73.89 42.51L73.54 41.94L73.16 41.38L72.78 40.84L72.38 40.29L71.96 39.75L71.54 39.22L71.1 38.71L70.65 38.21L70.19 37.71L69.71 37.22L69.22 36.74L68.72 36.28L68.2 35.82L67.69 35.38L67.15 34.95L66.82 34.69L66.15 34.18L65.82 33.94L65.48 33.71L65.15 33.46L64.8 33.24L64.46 33.01L64.1 32.78L63.76 32.57L63.05 32.14L62.69 31.94L62.32 31.74L61.59 31.35L60.86 30.98L60.49 30.8L60.11 30.63L59.73 30.47L59.36 30.29L58.97 30.14L58.6 29.98L58.21 29.84L57.83 29.68L57.44 29.54L57.04 29.41L56.66 29.28L55.47 28.91L55.07 28.8L54.67 28.69L54.27 28.59L53.05 28.31L52.72 28.27L52.39 28.22L51.72 28.14L51.4 28.1L50.73 28.02L50.4 27.98L50.07 27.95L49.73 27.91L49.4 27.88L49.07 27.84L47.73 27.71L47.4 27.68L46.73 27.62L46.4 27.6L46.06 27.57L45.73 27.55L45.4 27.52L43.39 27.4L43.06 27.39L42.72 27.37L42.4 27.36L42.06 27.34L41.39 27.32L41.06 27.3L40.39 27.28L40.3 27.28L40.25 27.27L40.21 27.27L40.17 27.26L40.12 27.25L40.08 27.23L40.04 27.22L40.01 27.21L39.89 27.15L39.86 27.13L39.82 27.1L39.79 27.07L39.76 27.05L39.6 26.9L39.58 26.87L39.55 26.84L39.53 26.8L39.51 26.77L39.49 26.73L39.47 26.7L39.43 26.62L39.41 26.54L39.39 26.5L39.38 26.45L39.38 26.41L39.37 26.36L39.37 26.32L39.36 26.28L39.36 19.1L17.9 37.77L39.36 56.44Z" id="gjuf0iOPN"></path></defs><g><g><g><use xlink:href="#cGgTj3PDL" opacity="1" fill="#000000" fill-opacity="1"></use><g><use xlink:href="#cGgTj3PDL" opacity="1" fill-opacity="0" stroke="#000000" stroke-width="1" stroke-opacity="0"></use></g></g><g><use xlink:href="#gjuf0iOPN" opacity="1" fill="#000000" fill-opacity="0"></use><g><use xlink:href="#gjuf0iOPN" opacity="1" fill-opacity="0" stroke="#000000" stroke-width="1" stroke-opacity="0"></use></g></g></g></g></svg>